<?xml version="1.0" encoding="utf-8"?>
<!-- Generator: Adobe Illustrator 18.1.0, SVG Export Plug-In . SVG Version: 6.00 Build 0)  -->
<svg version="1.1" xmlns="http://www.w3.org/2000/svg" xmlns:xlink="http://www.w3.org/1999/xlink" x="0px" y="0px"
	 viewBox="0 0 954 447.6" enable-background="new 0 0 954 447.6" xml:space="preserve">
<g id="_x2F_">
	<g id="footer">
		<g id="Layer_28">
		</g>
	</g>
	<g id="Chrome_Main" display="none">
		<defs>
			<rect id="SVGID_1_" x="-277.2" y="-234" width="1251" height="1004"/>
		</defs>
		<clipPath id="SVGID_2_" display="inline">
			<use xlink:href="#SVGID_1_"  overflow="visible"/>
		</clipPath>
		<g display="inline" clip-path="url(#SVGID_2_)">
			
				<image overflow="visible" width="1251" height="1023" xlink:href="../Documents/teknimotion/Products/tradeMapp - Media builds/Raw Media Material/Chrome Main.png"  transform="matrix(1 0 0 1 -277.175 -253)">
			</image>
		</g>
	</g>
	<g id="Main_centered">
		<g id="Blue_marker">
		</g>
		<g id="Blue_marker_copy">
		</g>
		<g id="Blue_marker_copy_2">
		</g>
		<g id="Blue_marker_copy_3">
		</g>
		<g id="Blue_marker_copy_4">
		</g>
		<g id="Blue_marker_copy_5">
		</g>
		<g id="Blue_marker_copy_6">
		</g>
	</g>
	<g id="Main_right">
		<g id="Login_copy">
		</g>
	</g>
	<g id="Header">
		<g id="Logo">
			<g id="Logo_Icon_copy">
			</g>
		</g>
		<g id="Menu_1_">
			<g id="Login">
			</g>
		</g>
	</g>
</g>
<g id="_x2F_Test">
	<rect x="-168.6" y="-124.4" fill="#F9F9F9" width="1274.4" height="435.8"/>
	<g id="LinkedIn">
	</g>
	<linearGradient id="SVGID_4_" gradientUnits="userSpaceOnUse" x1="295.2537" y1="56.2437" x2="293.0388" y2="133.16">
		<stop  offset="6.094714e-02" style="stop-color:#EDEDED"/>
		<stop  offset="0.9944" style="stop-color:#E1E1E1"/>
	</linearGradient>
	<path fill="url(#SVGID_4_)" d="M379.8,75.5c0,0-9-11.2-16.3-14.6c-7.3-3.3-18.5-3.1-18.5-3.1s-3.1-8.4-13.7-7.9s-13.5,6.6-13.5,6.6
		s-7.2-2.9-13.4-3s-13.8,1.6-13.8,1.6s-6.6-15.8-25.1-15.2s-24.8,10-28.5,17c-1.5,2.9-2,13-2,13s-25.7,1-25.7,14.3
		c0,18.2,23.2,18.1,23.2,18.1s18.4,4.8,29.2,4.6c14.4-0.2,35.7,52.4,35.7,52.4L379.8,75.5z"/>
	<linearGradient id="SVGID_5_" gradientUnits="userSpaceOnUse" x1="569.3196" y1="58.2253" x2="566.5206" y2="155.4322">
		<stop  offset="6.094714e-02" style="stop-color:#EDEDED"/>
		<stop  offset="0.9944" style="stop-color:#E1E1E1"/>
	</linearGradient>
	<path fill="url(#SVGID_5_)" d="M675.8,87.3c0,0-1.6-22.4-10.7-27.9c-22.8-14-35.7-6.1-35.7-6.1s-5.1-14-19.3-13.3
		c-14.1,0.7-16.9,11.7-16.9,11.7s-5.5-11.7-20.1-11.2c-12.7,0.4-16.1,9.3-16.1,9.3s-10.8-11.6-35.4-10.8
		c-24.6,0.7-32.8,13.6-32.8,13.6s-27.2,4.4-27.3,20.4c-0.2,23.3,49.2,22.9,49.2,22.9l-6,39.9l61.4,52.6L675.8,87.3z"/>
	<linearGradient id="SVGID_6_" gradientUnits="userSpaceOnUse" x1="421.1985" y1="8.3069" x2="421.4485" y2="63.3069">
		<stop  offset="0" style="stop-color:#3C6C96"/>
		<stop  offset="1" style="stop-color:#275880"/>
	</linearGradient>
	<polygon fill="url(#SVGID_6_)" points="403.8,6.1 403.8,63.4 438.8,64 438.8,8.9 	"/>
	<polygon fill="#154874" points="413.5,45.9 409.4,45.8 409.4,43 413.5,43.1 	"/>
	<polygon fill="#759FC7" points="424.4,19.6 420.4,19.5 420.4,16.7 424.4,16.7 	"/>
	<polygon fill="#154874" points="419.1,18.9 415,18.9 415,16 419.1,16.1 	"/>
	<polygon fill="#154874" points="413.5,18.5 409.4,18.4 409.4,15.6 413.5,15.6 	"/>
	<polygon fill="#154874" points="429.8,20.4 425.8,20.3 425.8,17.5 429.8,17.6 	"/>
	<polygon fill="#154874" points="435.2,21.1 431.1,21 431.1,18.2 435.2,18.3 	"/>
	<polygon fill="#154874" points="424.4,15 420.4,14.9 420.4,12.1 424.4,12.2 	"/>
	<polygon fill="#154874" points="419.1,14.3 415,14.3 415,11.5 419.1,11.5 	"/>
	<polygon fill="#759FC7" points="413.5,13.9 409.4,13.8 409.4,11 413.5,11.1 	"/>
	<polygon fill="#759FC7" points="429.8,15.8 425.8,15.8 425.8,13 429.8,13 	"/>
	<polygon fill="#154874" points="435.2,16.5 431.1,16.4 431.1,13.6 435.2,13.7 	"/>
	<polygon fill="#154874" points="424.4,24.1 420.4,24.1 420.4,21.3 424.4,21.3 	"/>
	<polygon fill="#759FC7" points="419.1,23.5 415,23.4 415,20.6 419.1,20.7 	"/>
	<polygon fill="#154874" points="413.5,23 409.4,23 409.4,20.2 413.5,20.2 	"/>
	<polygon fill="#154874" points="429.8,25 425.8,24.9 425.8,22.1 429.8,22.2 	"/>
	<polygon fill="#759FC7" points="435.2,25.7 431.1,25.6 431.1,22.8 435.2,22.8 	"/>
	<polygon fill="#154874" points="424.4,28.7 420.4,28.6 420.4,25.8 424.4,25.9 	"/>
	<polygon fill="#154874" points="419.1,28.1 415,28 415,25.2 419.1,25.3 	"/>
	<polygon fill="#154874" points="413.5,27.6 409.4,27.5 409.4,24.7 413.5,24.8 	"/>
	<polygon fill="#154874" points="429.8,29.6 425.8,29.5 425.8,26.7 429.8,26.8 	"/>
	<polygon fill="#154874" points="435.2,30.2 431.1,30.2 431.1,27.4 435.2,27.4 	"/>
	<polygon fill="#154874" points="424.4,33.3 420.4,33.2 420.4,30.4 424.4,30.5 	"/>
	<polygon fill="#759FC7" points="419.1,32.6 415,32.6 415,29.8 419.1,29.8 	"/>
	<polygon fill="#154874" points="413.5,32.2 409.4,32.1 409.4,29.3 413.5,29.4 	"/>
	<polygon fill="#759FC7" points="429.8,34.1 425.8,34.1 425.8,31.3 429.8,31.3 	"/>
	<polygon fill="#154874" points="435.2,34.8 431.1,34.7 431.1,31.9 435.2,32 	"/>
	<polygon fill="#154874" points="424.4,37.9 420.4,37.8 420.4,35 424.4,35.1 	"/>
	<polygon fill="#154874" points="419.1,37.2 415,37.2 415,34.3 419.1,34.4 	"/>
	<polygon fill="#154874" points="413.5,36.8 409.4,36.7 409.4,33.9 413.5,33.9 	"/>
	<polygon fill="#154874" points="429.8,38.7 425.8,38.7 425.8,35.8 429.8,35.9 	"/>
	<polygon fill="#154874" points="435.2,39.4 431.1,39.3 431.1,36.5 435.2,36.6 	"/>
	<polygon fill="#154874" points="424.4,42.4 420.4,42.4 420.4,39.6 424.4,39.6 	"/>
	<polygon fill="#154874" points="419.1,41.8 415,41.7 415,38.9 419.1,39 	"/>
	<polygon fill="#154874" points="413.5,41.3 409.4,41.3 409.4,38.5 413.5,38.5 	"/>
	<polygon fill="#759FC7" points="429.8,43.3 425.8,43.2 425.8,40.4 429.8,40.5 	"/>
	<polygon fill="#154874" points="435.2,44 431.1,43.9 431.1,41.1 435.2,41.1 	"/>
	<polygon fill="#154874" points="424.4,47 420.4,47 420.4,44.1 424.4,44.2 	"/>
	<polygon fill="#154874" points="419.1,46.4 415,46.3 415,43.5 419.1,43.6 	"/>
	<polygon fill="#154874" points="429.8,47.9 425.8,47.8 425.8,45 429.8,45.1 	"/>
	<polygon fill="#154874" points="435.2,48.5 431.1,48.5 431.1,45.7 435.2,45.7 	"/>
	<linearGradient id="SVGID_7_" gradientUnits="userSpaceOnUse" x1="386.3599" y1="9.6342" x2="386.6932" y2="55.7175">
		<stop  offset="0" style="stop-color:#154874"/>
		<stop  offset="1" style="stop-color:#154874"/>
	</linearGradient>
	<polygon fill="url(#SVGID_7_)" points="368.8,8.9 404.1,6.1 404.6,47.3 368.8,66 	"/>
	<g>
		<polygon fill="#32638B" points="348.8,63.9 348.8,61.9 369.7,61.2 398.1,33 397.8,93.7 346.9,76.8 		"/>
		<linearGradient id="SVGID_8_" gradientUnits="userSpaceOnUse" x1="397.825" y1="68.4608" x2="448.325" y2="68.4608">
			<stop  offset="0" style="stop-color:#4A7AA0"/>
			<stop  offset="0.7372" style="stop-color:#417199"/>
			<stop  offset="0.9944" style="stop-color:#3C6C96"/>
		</linearGradient>
		<polygon fill="url(#SVGID_8_)" points="398.1,33 397.8,93.7 448.3,103.9 448,62.6 426.1,61.2 		"/>
		<polygon fill="#32638B" points="409.1,71.9 403.3,71.5 403.3,67 409.1,67.3 		"/>
		<polygon fill="#32638B" points="432.9,74.4 427.1,74 427.1,69.4 432.9,69.8 		"/>
		<polygon fill="#32638B" points="440.7,74.9 434.8,74.5 434.8,69.9 440.7,70.3 		"/>
		<polygon fill="#638CB6" points="424.9,73.4 419.1,73 419.1,68.4 424.9,68.8 		"/>
		<polygon fill="#32638B" points="417.1,72.7 411.3,72.3 411.3,67.7 417.1,68.1 		"/>
		<polygon fill="#32638B" points="409.1,78 403.3,77.6 403.3,73 409.1,73.4 		"/>
		<polygon fill="#638CB6" points="432.9,80.4 427.1,80.1 427.1,75.5 432.9,75.9 		"/>
		<polygon fill="#638CB6" points="440.7,80.9 434.8,80.6 434.8,76 440.7,76.4 		"/>
		<polygon fill="#32638B" points="424.9,79.4 419.1,79.1 419.1,74.5 424.9,74.9 		"/>
		<polygon fill="#32638B" points="417.1,78.7 411.3,78.4 411.3,73.8 417.1,74.2 		"/>
		<polygon fill="#638CB6" points="409.1,84.8 403.3,84.5 403.3,79.9 409.1,80.3 		"/>
		<polygon fill="#638CB6" points="432.9,87.3 427.1,86.9 427.1,82.4 432.9,82.7 		"/>
		<polygon fill="#32638B" points="440.7,87.8 434.8,87.4 434.8,82.9 440.7,83.2 		"/>
		<polygon fill="#32638B" points="424.9,86.3 419.1,85.9 419.1,81.4 424.9,81.7 		"/>
		<polygon fill="#32638B" points="417.1,85.6 411.3,85.2 411.3,80.7 417.1,81.1 		"/>
		<polygon fill="#32638B" points="409.1,91.7 403.3,91.3 403.3,86.8 409.1,87.1 		"/>
		<polygon fill="#32638B" points="432.9,94.2 427.1,93.8 427.1,89.2 432.9,89.6 		"/>
		<polygon fill="#32638B" points="440.7,94.7 434.8,94.3 434.8,89.7 440.7,90.1 		"/>
		<polygon fill="#32638B" points="424.9,93.2 419.1,92.8 419.1,88.2 424.9,88.6 		"/>
		<polygon fill="#638CB6" points="417.1,92.5 411.3,92.1 411.3,87.6 417.1,87.9 		"/>
		<polygon fill="#32638B" points="409.1,98.8 403.3,98.4 403.3,93.8 409.1,94.2 		"/>
		<polygon fill="#32638B" points="432.9,101.2 427.1,100.9 427.1,96.3 432.9,96.7 		"/>
		<polygon fill="#32638B" points="440.7,101.7 434.8,101.4 434.8,96.8 440.7,97.2 		"/>
		<polygon fill="#32638B" points="424.9,100.2 419.1,99.9 419.1,95.3 424.9,95.7 		"/>
		<polygon fill="#32638B" points="417.1,99.6 411.3,99.2 411.3,94.6 417.1,95 		"/>
	</g>
	<linearGradient id="SVGID_9_" gradientUnits="userSpaceOnUse" x1="404.575" y1="45.2317" x2="404.575" y2="45.2317">
		<stop  offset="0" style="stop-color:#154874"/>
		<stop  offset="1" style="stop-color:#154874"/>
	</linearGradient>
	<path fill="url(#SVGID_9_)" d="M404.6,45.2"/>
	<g>
		<polygon fill="#2E5E87" points="434.8,34.1 434.8,122.9 475.8,127.1 475.8,29.9 		"/>
		<polygon fill="#194A75" points="451.7,43.7 446,43.8 446,39.9 451.7,39.9 		"/>
		<polygon fill="#194A75" points="458.7,42.9 453,43 453,39.1 458.7,39.1 		"/>
		<polygon fill="#194A75" points="465.7,42.1 459.9,42.2 459.9,38.3 465.7,38.3 		"/>
		<polygon fill="#194A75" points="472.5,41.7 466.8,41.8 466.8,37.9 472.5,37.8 		"/>
		<polygon fill="#194A75" points="451.7,49.7 446,49.8 446,45.9 451.7,45.8 		"/>
		<polygon fill="#194A75" points="458.7,48.9 453,49 453,45.1 458.7,45 		"/>
		<polygon fill="#194A75" points="465.7,48.1 459.9,48.2 459.9,44.3 465.7,44.2 		"/>
		<polygon fill="#194A75" points="472.5,47.6 466.8,47.7 466.8,43.8 472.5,43.8 		"/>
		<polygon fill="#194A75" points="451.7,55.1 446,55.2 446,51.3 451.7,51.2 		"/>
		<polygon fill="#194A75" points="458.7,54.3 453,54.4 453,50.5 458.7,50.4 		"/>
		<polygon fill="#194A75" points="465.7,53.5 459.9,53.6 459.9,49.7 465.7,49.6 		"/>
		<polygon fill="#194A75" points="472.5,53.1 466.8,53.1 466.8,49.3 472.5,49.2 		"/>
		<polygon fill="#194A75" points="451.7,60.9 446,61 446,57.1 451.7,57 		"/>
		<polygon fill="#194A75" points="458.7,60.1 453,60.1 453,56.3 458.7,56.2 		"/>
		<polygon fill="#194A75" points="465.7,59.3 459.9,59.4 459.9,55.5 465.7,55.4 		"/>
		<polygon fill="#194A75" points="472.5,58.8 466.8,58.9 466.8,55 472.5,54.9 		"/>
		<polygon fill="#194A75" points="451.7,66.7 446,66.7 446,62.9 451.7,62.8 		"/>
		<polygon fill="#194A75" points="458.7,65.8 453,65.9 453,62 458.7,62 		"/>
		<polygon fill="#194A75" points="465.7,65.1 459.9,65.1 459.9,61.3 465.7,61.2 		"/>
		<polygon fill="#194A75" points="472.5,64.6 466.8,64.7 466.8,60.8 472.5,60.7 		"/>
		<polygon fill="#194A75" points="451.7,72.5 446,72.6 446,68.7 451.7,68.6 		"/>
		<polygon fill="#194A75" points="458.7,71.7 453,71.7 453,67.9 458.7,67.8 		"/>
		<polygon fill="#194A75" points="465.7,70.9 459.9,71 459.9,67.1 465.7,67 		"/>
		<polygon fill="#194A75" points="472.5,70.4 466.8,70.5 466.8,66.6 472.5,66.5 		"/>
		<polygon fill="#194A75" points="451.7,78.4 446,78.5 446,74.6 451.7,74.5 		"/>
		<polygon fill="#194A75" points="458.7,77.6 453,77.7 453,73.8 458.7,73.7 		"/>
		<polygon fill="#194A75" points="465.7,76.8 459.9,76.9 459.9,73 465.7,72.9 		"/>
		<polygon fill="#194A75" points="472.5,76.3 466.8,76.4 466.8,72.5 472.5,72.5 		"/>
		<polygon fill="#194A75" points="451.7,84.2 446,84.3 446,80.4 451.7,80.3 		"/>
		<polygon fill="#194A75" points="458.7,83.4 453,83.4 453,79.6 458.7,79.5 		"/>
		<polygon fill="#194A75" points="465.7,82.6 459.9,82.7 459.9,78.8 465.7,78.7 		"/>
		<polygon fill="#194A75" points="472.5,82.1 466.8,82.2 466.8,78.3 472.5,78.2 		"/>
		<polygon fill="#194A75" points="451.7,95.2 446,95.3 446,91.4 451.7,91.3 		"/>
		<polygon fill="#194A75" points="458.7,94.4 453,94.5 453,90.6 458.7,90.5 		"/>
		<polygon fill="#194A75" points="465.7,93.6 459.9,93.7 459.9,89.8 465.7,89.7 		"/>
		<polygon fill="#194A75" points="472.5,93.1 466.8,93.2 466.8,89.3 472.5,89.3 		"/>
		<polygon fill="#194A75" points="451.7,101.3 446,101.4 446,97.5 451.7,97.4 		"/>
		<polygon fill="#194A75" points="458.7,100.5 453,100.6 453,96.7 458.7,96.6 		"/>
		<polygon fill="#194A75" points="465.7,99.7 459.9,99.8 459.9,95.9 465.7,95.8 		"/>
		<polygon fill="#194A75" points="472.5,99.2 466.8,99.3 466.8,95.4 472.5,95.4 		"/>
		<polygon fill="#194A75" points="451.7,107.4 446,107.4 446,103.6 451.7,103.5 		"/>
		<polygon fill="#194A75" points="458.7,106.5 453,106.6 453,102.7 458.7,102.7 		"/>
		<polygon fill="#194A75" points="465.7,105.8 459.9,105.8 459.9,102 465.7,101.9 		"/>
		<polygon fill="#194A75" points="472.5,105.3 466.8,105.4 466.8,101.5 472.5,101.4 		"/>
		<polygon fill="#194A75" points="451.7,113.2 446,113.3 446,109.4 451.7,109.4 		"/>
		<polygon fill="#194A75" points="444.7,44.8 438.9,44.9 438.9,41 444.7,40.9 		"/>
		<polygon fill="#194A75" points="444.7,50.8 438.9,50.9 438.9,47 444.7,46.9 		"/>
		<polygon fill="#194A75" points="444.7,56.2 438.9,56.3 438.9,52.4 444.7,52.3 		"/>
		<polygon fill="#194A75" points="444.7,62 438.9,62 438.9,58.2 444.7,58.1 		"/>
		<polygon fill="#194A75" points="444.7,67.7 438.9,67.8 438.9,63.9 444.7,63.9 		"/>
		<polygon fill="#194A75" points="444.7,73.6 438.9,73.6 438.9,69.8 444.7,69.7 		"/>
		<polygon fill="#194A75" points="444.7,79.5 438.9,79.6 438.9,75.7 444.7,75.6 		"/>
		<polygon fill="#194A75" points="444.7,85.3 438.9,85.3 438.9,81.5 444.7,81.4 		"/>
		<polygon fill="#194A75" points="444.7,96.3 438.9,96.4 438.9,92.5 444.7,92.4 		"/>
		<polygon fill="#194A75" points="444.7,102.4 438.9,102.5 438.9,98.6 444.7,98.5 		"/>
		<polygon fill="#194A75" points="444.7,108.4 438.9,108.5 438.9,104.6 444.7,104.6 		"/>
		<polygon fill="#194A75" points="444.7,114.3 438.9,114.4 438.9,110.5 444.7,110.5 		"/>
		<polygon fill="#194A75" points="458.7,112.4 453,112.5 453,108.6 458.7,108.6 		"/>
		<polygon fill="#194A75" points="465.7,111.7 459.9,111.7 459.9,107.9 465.7,107.8 		"/>
		<polygon fill="#194A75" points="472.5,111.2 466.8,111.3 466.8,107.4 472.5,107.3 		"/>
		<polygon fill="#194A75" points="458.7,118.2 453,118.3 453,114.4 458.7,114.3 		"/>
		<polygon fill="#194A75" points="465.7,117.4 459.9,117.5 459.9,113.6 465.7,113.5 		"/>
		<polygon fill="#194A75" points="472.5,116.9 466.8,117 466.8,113.2 472.5,113.1 		"/>
		<polygon fill="#22537F" points="517.8,32.8 475.8,29.9 475.8,126.9 517.8,130.1 		"/>
	</g>
	<polygon fill="#2B5C84" points="600.8,82.8 646.8,79.9 646.8,143 600.8,121.3 	"/>
	<linearGradient id="SVGID_10_" gradientUnits="userSpaceOnUse" x1="288.2926" y1="73.8106" x2="287.6346" y2="178.1061">
		<stop  offset="0" style="stop-color:#275880"/>
		<stop  offset="1" style="stop-color:#275880"/>
	</linearGradient>
	<polygon fill="url(#SVGID_10_)" points="254.8,86.5 280.7,87 280.8,73.9 321.7,70.7 320.4,179.9 254.8,179.3 	"/>
	<rect x="258.7" y="92.6" fill="#083E69" width="5.4" height="3.8"/>
	<rect x="264.9" y="92.7" fill="#083E69" width="5.4" height="3.8"/>
	<rect x="270.9" y="92.8" fill="#5D85B0" width="5.4" height="3.8"/>
	<rect x="270.9" y="102.7" fill="#083E69" width="5.4" height="3.8"/>
	<rect x="265.1" y="102.6" fill="#083E69" width="5.4" height="3.8"/>
	<rect x="258.8" y="102.5" fill="#083E69" width="5.4" height="3.8"/>
	<rect x="277" y="92.9" fill="#083E69" width="3.1" height="3.8"/>
	<rect x="277" y="102.8" fill="#083E69" width="3.1" height="3.8"/>
	<rect x="270.9" y="97.8" fill="#083E69" width="5.4" height="3.8"/>
	<rect x="265.1" y="97.7" fill="#083E69" width="5.4" height="3.8"/>
	<rect x="258.8" y="97.5" fill="#5D85B0" width="5.4" height="3.8"/>
	<rect x="277" y="97.8" fill="#5D85B0" width="3.1" height="3.8"/>
	<rect x="270.9" y="107.7" fill="#083E69" width="5.4" height="3.8"/>
	<rect x="265.1" y="107.6" fill="#5D85B0" width="5.4" height="3.8"/>
	<rect x="258.8" y="107.5" fill="#083E69" width="5.4" height="3.8"/>
	<rect x="277" y="107.8" fill="#083E69" width="3.1" height="3.8"/>
	<rect x="270.9" y="112.7" fill="#083E69" width="5.4" height="3.8"/>
	<rect x="265.1" y="112.6" fill="#083E69" width="5.4" height="3.8"/>
	<rect x="258.8" y="112.5" fill="#083E69" width="5.4" height="3.8"/>
	<rect x="277" y="112.7" fill="#083E69" width="3.1" height="3.8"/>
	<rect x="270.9" y="117.7" fill="#5380A8" width="5.4" height="3.8"/>
	<rect x="265.1" y="117.6" fill="#083E69" width="5.4" height="3.8"/>
	<rect x="258.8" y="117.4" fill="#5380A8" width="5.4" height="3.8"/>
	<rect x="277" y="117.7" fill="#083E69" width="3.1" height="3.8"/>
	<rect x="270.9" y="122.6" fill="#5380A8" width="5.4" height="3.8"/>
	<rect x="265.1" y="122.5" fill="#083E69" width="5.4" height="3.8"/>
	<rect x="258.8" y="122.4" fill="#083E69" width="5.4" height="3.8"/>
	<rect x="277" y="122.6" fill="#083E69" width="3.1" height="3.8"/>
	<rect x="270.9" y="127.6" fill="#083E69" width="5.4" height="3.8"/>
	<rect x="265.1" y="127.5" fill="#083E69" width="5.4" height="3.8"/>
	<rect x="258.8" y="127.4" fill="#5380A8" width="5.4" height="3.8"/>
	<rect x="277" y="127.6" fill="#083E69" width="3.1" height="3.8"/>
	<rect x="258.7" y="135.6" fill="#083E69" width="5.4" height="3.8"/>
	<rect x="264.9" y="135.7" fill="#083E69" width="5.4" height="3.8"/>
	<rect x="270.9" y="135.8" fill="#083E69" width="5.4" height="3.8"/>
	<rect x="270.9" y="145.7" fill="#083E69" width="5.4" height="3.8"/>
	<rect x="265.1" y="145.6" fill="#4A7AA0" width="5.4" height="3.8"/>
	<rect x="258.8" y="145.5" fill="#083E69" width="5.4" height="3.8"/>
	<rect x="277" y="135.9" fill="#083E69" width="3.1" height="3.8"/>
	<rect x="277" y="145.8" fill="#083E69" width="3.1" height="3.8"/>
	<rect x="270.9" y="140.8" fill="#4A7AA0" width="5.4" height="3.8"/>
	<rect x="265.1" y="140.7" fill="#083E69" width="5.4" height="3.8"/>
	<rect x="258.8" y="140.5" fill="#083E69" width="5.4" height="3.8"/>
	<rect x="277" y="140.8" fill="#083E69" width="3.1" height="3.8"/>
	<rect x="270.9" y="150.7" fill="#44759C" width="5.4" height="3.8"/>
	<rect x="265.1" y="150.6" fill="#083E69" width="5.4" height="3.8"/>
	<rect x="258.8" y="150.5" fill="#083E69" width="5.4" height="3.8"/>
	<rect x="277" y="150.8" fill="#083E69" width="3.1" height="3.8"/>
	<rect x="270.9" y="155.7" fill="#083E69" width="5.4" height="3.8"/>
	<rect x="265.1" y="155.6" fill="#083E69" width="5.4" height="3.8"/>
	<rect x="258.8" y="155.5" fill="#4A7AA0" width="5.4" height="3.8"/>
	<rect x="277" y="155.7" fill="#083E69" width="3.1" height="3.8"/>
	<rect x="270.9" y="160.7" fill="#083E69" width="5.4" height="3.8"/>
	<rect x="265.1" y="160.6" fill="#083E69" width="5.4" height="3.8"/>
	<rect x="258.8" y="160.4" fill="#083E69" width="5.4" height="3.8"/>
	<rect x="277" y="160.7" fill="#083E69" width="3.1" height="3.8"/>
	<rect x="270.9" y="165.6" fill="#083E69" width="5.4" height="3.8"/>
	<rect x="265.1" y="165.5" fill="#083E69" width="5.4" height="3.8"/>
	<rect x="258.8" y="165.4" fill="#083E69" width="5.4" height="3.8"/>
	<rect x="277" y="165.6" fill="#083E69" width="3.1" height="3.8"/>
	<rect x="270.9" y="170.8" fill="#083E69" width="5.4" height="3.8"/>
	<rect x="265.1" y="170.7" fill="#083E69" width="5.4" height="3.8"/>
	<rect x="258.8" y="170.5" fill="#083E69" width="5.4" height="3.8"/>
	<rect x="277" y="170.8" fill="#083E69" width="3.1" height="3.8"/>
	<polygon fill="#194A75" points="293.6,82.1 287.8,82.1 287.8,78.3 293.6,78.2 	"/>
	<polygon fill="#194A75" points="300.6,81.3 294.8,81.3 294.8,77.5 300.6,77.4 	"/>
	<polygon fill="#194A75" points="307.5,80.6 301.8,80.6 301.8,76.8 307.5,76.7 	"/>
	<polygon fill="#194A75" points="314.3,80.3 308.6,80.3 308.6,76.5 314.3,76.4 	"/>
	<polygon fill="#194A75" points="293.6,88 287.8,88.1 287.8,84.2 293.6,84.2 	"/>
	<polygon fill="#194A75" points="300.6,87.2 294.8,87.3 294.8,83.4 300.6,83.4 	"/>
	<polygon fill="#194A75" points="307.5,86.5 301.8,86.6 301.8,82.7 307.5,82.7 	"/>
	<polygon fill="#194A75" points="314.3,86.2 308.6,86.3 308.6,82.4 314.3,82.4 	"/>
	<polygon fill="#194A75" points="293.6,93.4 287.8,93.5 287.8,89.6 293.6,89.6 	"/>
	<polygon fill="#194A75" points="300.6,92.6 294.8,92.7 294.8,88.8 300.6,88.8 	"/>
	<polygon fill="#194A75" points="307.5,91.9 301.8,92 301.8,88.1 307.5,88.1 	"/>
	<polygon fill="#194A75" points="314.3,91.6 308.6,91.7 308.6,87.8 314.3,87.8 	"/>
	<polygon fill="#194A75" points="293.6,99.2 287.8,99.3 287.8,95.4 293.6,95.3 	"/>
	<polygon fill="#194A75" points="300.6,98.4 294.8,98.5 294.8,94.6 300.6,94.5 	"/>
	<polygon fill="#194A75" points="307.5,97.7 301.8,97.8 301.8,93.9 307.5,93.8 	"/>
	<polygon fill="#194A75" points="314.3,97.4 308.6,97.5 308.6,93.6 314.3,93.5 	"/>
	<polygon fill="#194A75" points="293.6,105 287.8,105.1 287.8,101.2 293.6,101.1 	"/>
	<polygon fill="#194A75" points="300.6,104.2 294.8,104.3 294.8,100.4 300.6,100.3 	"/>
	<polygon fill="#194A75" points="307.5,103.5 301.8,103.6 301.8,99.7 307.5,99.6 	"/>
	<polygon fill="#194A75" points="314.3,103.2 308.6,103.3 308.6,99.4 314.3,99.3 	"/>
	<polygon fill="#194A75" points="293.6,110.8 287.8,110.9 287.8,107 293.6,106.9 	"/>
	<polygon fill="#194A75" points="300.6,110 294.8,110.1 294.8,106.2 300.6,106.1 	"/>
	<polygon fill="#194A75" points="307.5,109.3 301.8,109.4 301.8,105.5 307.5,105.4 	"/>
	<polygon fill="#194A75" points="314.3,109 308.6,109.1 308.6,105.2 314.3,105.1 	"/>
	<polygon fill="#194A75" points="293.6,116.7 287.8,116.8 287.8,112.9 293.6,112.9 	"/>
	<polygon fill="#194A75" points="300.6,115.9 294.8,116 294.8,112.1 300.6,112.1 	"/>
	<polygon fill="#194A75" points="307.5,115.2 301.8,115.3 301.8,111.4 307.5,111.4 	"/>
	<polygon fill="#194A75" points="314.3,114.9 308.6,115 308.6,111.1 314.3,111.1 	"/>
	<polygon fill="#194A75" points="293.6,122.5 287.8,122.6 287.8,118.7 293.6,118.6 	"/>
	<polygon fill="#194A75" points="300.6,121.7 294.8,121.8 294.8,117.9 300.6,117.8 	"/>
	<polygon fill="#194A75" points="307.5,121 301.8,121.1 301.8,117.2 307.5,117.1 	"/>
	<polygon fill="#194A75" points="314.3,120.7 308.6,120.8 308.6,116.9 314.3,116.8 	"/>
	<polygon fill="#194A75" points="293.6,133.5 287.8,133.6 287.8,129.7 293.6,129.7 	"/>
	<polygon fill="#194A75" points="300.6,132.7 294.8,132.8 294.8,128.9 300.6,128.9 	"/>
	<polygon fill="#194A75" points="307.5,132 301.8,132.1 301.8,128.2 307.5,128.2 	"/>
	<polygon fill="#194A75" points="314.3,131.7 308.6,131.8 308.6,127.9 314.3,127.9 	"/>
	<polygon fill="#194A75" points="293.6,139.6 287.8,139.7 287.8,135.8 293.6,135.8 	"/>
	<polygon fill="#194A75" points="300.6,138.8 294.8,138.9 294.8,135 300.6,134.9 	"/>
	<polygon fill="#194A75" points="307.5,138.1 301.8,138.2 301.8,134.3 307.5,134.3 	"/>
	<polygon fill="#194A75" points="314.3,137.8 308.6,137.9 308.6,134 314.3,133.9 	"/>
	<polygon fill="#194A75" points="293.6,145.7 287.8,145.8 287.8,141.9 293.6,141.8 	"/>
	<polygon fill="#194A75" points="300.6,144.9 294.8,144.9 294.8,141.1 300.6,141 	"/>
	<polygon fill="#194A75" points="307.5,144.2 301.8,144.3 301.8,140.4 307.5,140.3 	"/>
	<polygon fill="#194A75" points="314.3,143.9 308.6,143.9 308.6,140.1 314.3,140 	"/>
	<polygon fill="#194A75" points="293.6,151.6 287.8,151.7 287.8,147.8 293.6,147.7 	"/>
	<polygon fill="#194A75" points="300.6,150.8 294.8,150.8 294.8,147 300.6,146.9 	"/>
	<polygon fill="#194A75" points="307.5,150.1 301.8,150.2 301.8,146.3 307.5,146.2 	"/>
	<polygon fill="#194A75" points="314.3,149.8 308.6,149.8 308.6,146 314.3,145.9 	"/>
	<polygon fill="#194A75" points="293.6,157.3 287.8,157.4 287.8,153.5 293.6,153.5 	"/>
	<polygon fill="#194A75" points="300.6,156.5 294.8,156.6 294.8,152.7 300.6,152.7 	"/>
	<polygon fill="#194A75" points="307.5,155.8 301.8,155.9 301.8,152 307.5,152 	"/>
	<polygon fill="#194A75" points="314.3,155.5 308.6,155.6 308.6,151.7 314.3,151.7 	"/>
	<polygon fill="#194A75" points="293.6,162.6 287.8,162.7 287.8,158.8 293.6,158.7 	"/>
	<polygon fill="#194A75" points="300.6,161.8 294.8,161.9 294.8,158 300.6,157.9 	"/>
	<polygon fill="#194A75" points="307.5,161.1 301.8,161.2 301.8,157.3 307.5,157.2 	"/>
	<polygon fill="#194A75" points="314.3,160.8 308.6,160.9 308.6,157 314.3,156.9 	"/>
	<polygon fill="#194A75" points="293.6,168.5 287.8,168.5 287.8,164.7 293.6,164.6 	"/>
	<polygon fill="#194A75" points="300.6,167.6 294.8,167.7 294.8,163.9 300.6,163.8 	"/>
	<polygon fill="#194A75" points="307.5,167 301.8,167 301.8,163.2 307.5,163.1 	"/>
	<polygon fill="#194A75" points="314.3,166.6 308.6,166.7 308.6,162.9 314.3,162.8 	"/>
	<polygon fill="#194A75" points="293.6,174.5 287.8,174.6 287.8,170.7 293.6,170.6 	"/>
	<polygon fill="#194A75" points="300.6,173.7 294.8,173.8 294.8,169.9 300.6,169.8 	"/>
	<polygon fill="#194A75" points="307.5,173 301.8,173.1 301.8,169.2 307.5,169.1 	"/>
	<polygon fill="#194A75" points="314.3,172.7 308.6,172.8 308.6,168.9 314.3,168.8 	"/>
	<linearGradient id="SVGID_11_" gradientUnits="userSpaceOnUse" x1="236.7087" y1="87.1006" x2="236.1366" y2="177.7767">
		<stop  offset="0" style="stop-color:#194A75"/>
		<stop  offset="1" style="stop-color:#083D68"/>
	</linearGradient>
	<polygon fill="url(#SVGID_11_)" points="254.8,86.3 218.2,84.1 217.5,175.5 254.8,179.3 	"/>
	<linearGradient id="SVGID_12_" gradientUnits="userSpaceOnUse" x1="512.2889" y1="65.7375" x2="512.3723" y2="137.0709">
		<stop  offset="0" style="stop-color:#144671"/>
		<stop  offset="0.8273" style="stop-color:#0B3F6A"/>
		<stop  offset="0.9944" style="stop-color:#083D68"/>
	</linearGradient>
	<polygon fill="url(#SVGID_12_)" points="494.8,78.2 513.5,77.6 529.8,60.7 529.8,140.9 494.8,132.5 	"/>
	
		<linearGradient id="SVGID_13_" gradientUnits="userSpaceOnUse" x1="686.8304" y1="65.7409" x2="686.9138" y2="137.0742" gradientTransform="matrix(-0.8595 0 0 1 1137.7031 0)">
		<stop  offset="0" style="stop-color:#275880"/>
		<stop  offset="0.7372" style="stop-color:#1E4F79"/>
		<stop  offset="0.9944" style="stop-color:#194A75"/>
	</linearGradient>
	<polygon fill="url(#SVGID_13_)" points="564.8,79.6 546.1,77.6 529.8,60.7 529.8,140.9 564.8,132.5 	"/>
	<g>
		<g>
			<linearGradient id="SVGID_14_" gradientUnits="userSpaceOnUse" x1="547.1526" y1="80.8099" x2="547.4859" y2="129.8933">
				<stop  offset="0" style="stop-color:#144671"/>
				<stop  offset="0.8273" style="stop-color:#0B3F6A"/>
				<stop  offset="0.9944" style="stop-color:#083D68"/>
			</linearGradient>
			<path fill="url(#SVGID_14_)" d="M534.3,86.4l4,0.1v-3.7l-4-0.1V86.4z M539.8,87l4,0.1v-3.7l-4-0.1V87z M545.3,87.5l4,0.1v-3.7
				l-4-0.1V87.5z M550.8,88l4,0.1v-3.7l-4-0.1V88z M556.4,84.8v3.7l4,0.1v-3.7L556.4,84.8z M534.3,92.2l4,0.1v-3.7l-4-0.1V92.2z
				 M539.8,92.9l4,0.1v-3.7l-4-0.1V92.9z M545.3,93.4l4,0.1v-3.7l-4-0.1V93.4z M550.8,93.8l4,0.1v-3.7l-4-0.1V93.8z M556.4,94.4
				l4,0.1v-3.7l-4-0.1V94.4z M534.3,98.1l4,0.1v-3.7l-4-0.1V98.1z M539.8,98.7l4,0.1v-3.7l-4-0.1V98.7z M545.3,99.2l4,0.1v-3.7
				l-4-0.1V99.2z M550.8,99.7l4,0.1v-3.7l-4-0.1V99.7z M556.4,100.3l4,0.1v-3.7l-4-0.1V100.3z M534.3,104l4,0.1v-3.7l-4-0.1V104z
				 M539.8,104.6l4,0.1V101l-4-0.1V104.6z M545.3,105.1l4,0.1v-3.7l-4-0.1V105.1z M550.8,105.6l4,0.1V102l-4-0.1V105.6z
				 M556.4,106.1l4,0.1v-3.7l-4-0.1V106.1z M534.3,109.8l4,0.1v-3.7l-4-0.1V109.8z M539.8,110.5l4,0.1v-3.7l-4-0.1V110.5z
				 M545.3,111l4,0.1v-3.7l-4-0.1V111z M550.8,111.4l4,0.1v-3.7l-4-0.1V111.4z M556.4,112l4,0.1v-3.7l-4-0.1V112z M534.3,115.7
				l4,0.1v-3.7l-4-0.1V115.7z M539.8,116.3l4,0.1v-3.7l-4-0.1V116.3z M545.3,116.9l4,0.1v-3.7l-4-0.1V116.9z M550.8,117.3l4,0.1
				v-3.7l-4-0.1V117.3z M556.4,117.9l4,0.1v-3.7l-4-0.1V117.9z M534.3,121.6l4,0.1V118l-4-0.1V121.6z M539.8,122.2l4,0.1v-3.7
				l-4-0.1V122.2z M545.3,122.7l4,0.1v-3.7l-4-0.1V122.7z M550.8,123.2l4,0.1v-3.7l-4-0.1V123.2z M556.4,123.7l4,0.1v-3.7l-4-0.1
				V123.7z M534.3,127.4l4,0.1v-3.7l-4-0.1V127.4z M539.8,128.1l4,0.1v-3.7l-4-0.1V128.1z M545.3,128.6l4,0.1V125l-4-0.1V128.6z
				 M550.8,129.1l4,0.1v-3.7l-4-0.1V129.1z M556.4,129.6l4,0.1V126l-4-0.1V129.6z"/>
		</g>
	</g>
	<polygon fill="#154874" points="613.1,102 607.3,102.2 607.3,97.9 613.1,97.6 	"/>
	<polygon fill="#154874" points="620.3,101.1 614.6,101.4 614.6,97 620.3,96.8 	"/>
	<polygon fill="#154874" points="627.5,100.3 621.8,100.6 621.8,96.2 627.5,96 	"/>
	<polygon fill="#154874" points="634.8,99.4 629,99.7 629,95.4 634.8,95.1 	"/>
	<polygon fill="#154874" points="642,98.8 636.2,99.1 636.2,94.7 642,94.5 	"/>
	<polygon fill="#154874" points="613.1,96 607.3,96.2 607.3,91.9 613.1,91.6 	"/>
	<polygon fill="#154874" points="620.3,95.1 614.6,95.4 614.6,91 620.3,90.8 	"/>
	<polygon fill="#154874" points="627.5,94.3 621.8,94.6 621.8,90.2 627.5,90 	"/>
	<polygon fill="#154874" points="634.8,93.4 629,93.7 629,89.4 634.8,89.1 	"/>
	<polygon fill="#154874" points="642,92.8 636.2,93.1 636.2,88.7 642,88.5 	"/>
	<polygon fill="#154874" points="613.1,108.1 607.3,108.3 607.3,104 613.1,103.7 	"/>
	<polygon fill="#154874" points="620.3,107.2 614.6,107.5 614.6,103.1 620.3,102.9 	"/>
	<polygon fill="#154874" points="627.5,106.4 621.8,106.7 621.8,102.3 627.5,102.1 	"/>
	<polygon fill="#154874" points="634.8,105.5 629,105.8 629,101.5 634.8,101.2 	"/>
	<polygon fill="#154874" points="642,104.9 636.2,105.2 636.2,100.8 642,100.6 	"/>
	<polygon fill="#154874" points="613.1,114.3 607.3,114.6 607.3,110.3 613.1,110 	"/>
	<polygon fill="#154874" points="620.3,113.5 614.6,113.7 614.6,109.4 620.3,109.1 	"/>
	<polygon fill="#154874" points="627.5,112.7 621.8,112.9 621.8,108.6 627.5,108.3 	"/>
	<polygon fill="#154874" points="634.8,111.8 629,112.1 629,107.7 634.8,107.5 	"/>
	<polygon fill="#154874" points="642,111.2 636.2,111.4 636.2,107.1 642,106.8 	"/>
	<linearGradient id="SVGID_15_" gradientUnits="userSpaceOnUse" x1="668.8133" y1="82.5355" x2="669.8133" y2="178.0354">
		<stop  offset="0" style="stop-color:#3C6C96"/>
		<stop  offset="1" style="stop-color:#275880"/>
	</linearGradient>
	<polygon fill="url(#SVGID_15_)" points="646.8,79.9 646.8,179.9 691.8,182.1 691.8,82.9 	"/>
	<polygon fill="#80AAD4" points="657.8,92.7 651.8,92.5 651.8,88.1 657.8,88.3 	"/>
	<polygon fill="#80AAD4" points="665.2,93.7 659.2,93.5 659.2,89.1 665.2,89.3 	"/>
	<polygon fill="#80AAD4" points="672.5,94.2 666.5,94.1 666.5,89.7 672.5,89.8 	"/>
	<polygon fill="#80AAD4" points="679.8,95 673.8,94.8 673.8,90.4 679.8,90.6 	"/>
	<polygon fill="#80AAD4" points="687.1,95.6 681.1,95.5 681.1,91.1 687.1,91.2 	"/>
	<polygon fill="#80AAD4" points="657.8,98.7 651.8,98.5 651.8,94.1 657.8,94.3 	"/>
	<polygon fill="#80AAD4" points="665.2,99.7 659.2,99.5 659.2,95.1 665.2,95.3 	"/>
	<polygon fill="#80AAD4" points="672.5,100.2 666.5,100.1 666.5,95.7 672.5,95.8 	"/>
	<polygon fill="#80AAD4" points="679.8,101 673.8,100.8 673.8,96.4 679.8,96.6 	"/>
	<polygon fill="#80AAD4" points="687.1,101.6 681.1,101.5 681.1,97.1 687.1,97.2 	"/>
	<polygon fill="#80AAD4" points="657.8,104.7 651.8,104.6 651.8,100.2 657.8,100.3 	"/>
	<polygon fill="#80AAD4" points="665.2,105.7 659.2,105.5 659.2,101.1 665.2,101.3 	"/>
	<polygon fill="#80AAD4" points="672.5,106.3 666.5,106.1 666.5,101.7 672.5,101.8 	"/>
	<polygon fill="#80AAD4" points="679.8,107 673.8,106.8 673.8,102.4 679.8,102.6 	"/>
	<polygon fill="#80AAD4" points="687.1,107.7 681.1,107.5 681.1,103.1 687.1,103.2 	"/>
	<polygon fill="#80AAD4" points="657.8,110.7 651.8,110.6 651.8,106.2 657.8,106.3 	"/>
	<polygon fill="#80AAD4" points="665.2,111.7 659.2,111.6 659.2,107.1 665.2,107.3 	"/>
	<polygon fill="#80AAD4" points="672.5,112.3 666.5,112.1 666.5,107.7 672.5,107.9 	"/>
	<polygon fill="#80AAD4" points="679.8,113 673.8,112.9 673.8,108.4 679.8,108.6 	"/>
	<polygon fill="#80AAD4" points="687.1,113.7 681.1,113.5 681.1,109.1 687.1,109.3 	"/>
	<polygon fill="#80AAD4" points="657.8,116.7 651.8,116.6 651.8,112.2 657.8,112.3 	"/>
	<polygon fill="#80AAD4" points="665.2,117.7 659.2,117.6 659.2,113.2 665.2,113.3 	"/>
	<polygon fill="#80AAD4" points="672.5,118.3 666.5,118.1 666.5,113.7 672.5,113.9 	"/>
	<polygon fill="#80AAD4" points="679.8,119 673.8,118.9 673.8,114.5 679.8,114.6 	"/>
	<polygon fill="#80AAD4" points="687.1,119.7 681.1,119.5 681.1,115.1 687.1,115.3 	"/>
	<polygon fill="#80AAD4" points="657.8,122.8 651.8,122.6 651.8,118.2 657.8,118.4 	"/>
	<polygon fill="#80AAD4" points="665.2,123.7 659.2,123.6 659.2,119.2 665.2,119.3 	"/>
	<polygon fill="#80AAD4" points="672.5,124.3 666.5,124.1 666.5,119.7 672.5,119.9 	"/>
	<polygon fill="#80AAD4" points="679.8,125 673.8,124.9 673.8,120.5 679.8,120.6 	"/>
	<polygon fill="#80AAD4" points="687.1,125.7 681.1,125.5 681.1,121.1 687.1,121.3 	"/>
	<polygon fill="#80AAD4" points="657.8,128.8 651.8,128.6 651.8,124.2 657.8,124.4 	"/>
	<polygon fill="#80AAD4" points="665.2,129.8 659.2,129.6 659.2,125.2 665.2,125.4 	"/>
	<polygon fill="#80AAD4" points="672.5,130.3 666.5,130.2 666.5,125.8 672.5,125.9 	"/>
	<polygon fill="#80AAD4" points="679.8,131.1 673.8,130.9 673.8,126.5 679.8,126.7 	"/>
	<polygon fill="#80AAD4" points="687.1,131.7 681.1,131.6 681.1,127.2 687.1,127.3 	"/>
	<polygon fill="#80AAD4" points="657.8,134.8 651.8,134.6 651.8,130.2 657.8,130.4 	"/>
	<polygon fill="#80AAD4" points="665.2,135.8 659.2,135.6 659.2,131.2 665.2,131.4 	"/>
	<polygon fill="#80AAD4" points="672.5,136.3 666.5,136.2 666.5,131.8 672.5,131.9 	"/>
	<polygon fill="#80AAD4" points="679.8,137.1 673.8,136.9 673.8,132.5 679.8,132.7 	"/>
	<polygon fill="#80AAD4" points="687.1,137.7 681.1,137.6 681.1,133.2 687.1,133.3 	"/>
	<polygon fill="#80AAD4" points="657.8,146.9 651.8,146.7 651.8,142.3 657.8,142.5 	"/>
	<polygon fill="#80AAD4" points="665.2,147.9 659.2,147.7 659.2,143.3 665.2,143.5 	"/>
	<polygon fill="#80AAD4" points="672.5,148.4 666.5,148.3 666.5,143.9 672.5,144 	"/>
	<polygon fill="#80AAD4" points="679.8,149.2 673.8,149 673.8,144.6 679.8,144.8 	"/>
	<polygon fill="#80AAD4" points="687.1,149.8 681.1,149.7 681.1,145.3 687.1,145.4 	"/>
	<polygon fill="#80AAD4" points="657.8,153.1 651.8,152.9 651.8,148.5 657.8,148.7 	"/>
	<polygon fill="#80AAD4" points="665.2,154.1 659.2,153.9 659.2,149.5 665.2,149.7 	"/>
	<polygon fill="#80AAD4" points="672.5,154.6 666.5,154.5 666.5,150.1 672.5,150.2 	"/>
	<polygon fill="#80AAD4" points="679.8,155.4 673.8,155.2 673.8,150.8 679.8,151 	"/>
	<polygon fill="#80AAD4" points="687.1,156 681.1,155.9 681.1,151.5 687.1,151.6 	"/>
	<polygon fill="#80AAD4" points="657.8,159.3 651.8,159.1 651.8,154.7 657.8,154.9 	"/>
	<polygon fill="#80AAD4" points="665.2,160.3 659.2,160.1 659.2,155.7 665.2,155.8 	"/>
	<polygon fill="#80AAD4" points="672.5,160.8 666.5,160.7 666.5,156.3 672.5,156.4 	"/>
	<polygon fill="#80AAD4" points="679.8,161.6 673.8,161.4 673.8,157 679.8,157.1 	"/>
	<polygon fill="#80AAD4" points="687.1,162.2 681.1,162.1 681.1,157.6 687.1,157.8 	"/>
	<g id="Carte">
		<polygon fill="#DDD9C9" points="150.5,321.2 465.2,439.2 712.9,300.1 396.3,189.9 		"/>
		<polygon fill="#87C13F" points="483.4,429 460.9,382.8 478.6,360.6 582.4,373.4 		"/>
		<polyline fill="none" stroke="#FFFFFF" stroke-width="3" stroke-miterlimit="10" points="370.6,403.9 374.3,397.1 378.9,388.8 
			389.8,370.5 420.8,370.5 439.7,352.1 		"/>
		<path fill="none" stroke="#FFFFFF" stroke-width="3" stroke-miterlimit="10" d="M396.3,398"/>
		<polyline fill="none" stroke="#FFFFFF" stroke-width="3" stroke-miterlimit="10" points="376.3,394.1 398.3,395 423.8,397.5 
			460.9,382.8 478.6,360.6 		"/>
		<polyline fill="none" stroke="#FFFFFF" stroke-width="3" stroke-miterlimit="10" points="391.4,370.1 324.4,367.4 304.8,360.6 
			282.9,361.8 271.7,367.1 		"/>
		<polyline fill="none" stroke="#FFFFFF" stroke-width="3" stroke-miterlimit="10" points="322.5,366.6 334.9,363.1 359.4,339.8 
			293.1,341.3 280.9,330.1 		"/>
		<polyline fill="none" stroke="#FFFFFF" stroke-width="3" stroke-miterlimit="10" points="335.8,323.6 341.8,314.3 360.4,317 		"/>
		<line fill="none" stroke="#FFFFFF" stroke-width="3" stroke-miterlimit="10" x1="353.1" y1="367.9" x2="378.3" y2="344.4"/>
		<line fill="none" stroke="#FFFFFF" stroke-width="3" stroke-miterlimit="10" x1="280.9" y1="362.8" x2="256.5" y2="362.2"/>
		<path fill="none" stroke="#FFFFFF" stroke-width="3" stroke-miterlimit="10" d="M511.6,365c1-1.1,30.8-23,30.8-23v-38.1l29.2-1.2
			l25.7-1.1l42.8-4.2l2.3-22.7V259"/>
		<polyline fill="none" stroke="#FFFFFF" stroke-width="3" stroke-miterlimit="10" points="573.2,303.8 583.5,318.6 605.5,321.7 
			591.8,352 573.2,370.1 		"/>
		<path fill="none" stroke="#FFFFFF" stroke-width="3" stroke-miterlimit="10" d="M249.5,358.2c1.4-3.2,2.9-6.4,4.3-9.7"/>
		<path fill="none" stroke="#FFFFFF" stroke-width="3" stroke-miterlimit="10" d="M149.3,319.7c43.7,3.4,89.5,7.4,133.2,10.9"/>
		<path fill="none" stroke="#FFFFFF" stroke-width="3" stroke-miterlimit="10" d="M192.9,332.1c-2.2-8.9-5.2-19.9-7.4-28.8"/>
		<path fill="none" stroke="#FFFFFF" stroke-width="3" stroke-miterlimit="10" d="M192.8,294.9c18.1,1.8,130.9,17.6,149,19.4"/>
		<path fill="none" stroke="#FFFFFF" stroke-width="3" stroke-miterlimit="10" d="M291,338.2l-16.2,8c-6.5,0.8-13.1,1.6-19.6,2.4
			c-1,0.1-2,0.2-3,0.4c-7.8,1-15.6,1.9-23.4,2.9"/>
		<polyline fill="none" stroke="#F6AB3B" stroke-width="5" stroke-linejoin="bevel" stroke-miterlimit="10" points="178.2,304.6 
			389.8,328.9 459.1,358.9 582.4,373.5 585.8,373.5 		"/>
		<polygon fill="#EDEDED" points="578.4,376 586.4,376.4 586.2,372 		"/>
		<linearGradient id="SVGID_16_" gradientUnits="userSpaceOnUse" x1="464.6686" y1="369.66" x2="713.4208" y2="369.66">
			<stop  offset="0" style="stop-color:#C7C7C7"/>
			<stop  offset="1" style="stop-color:#666666"/>
		</linearGradient>
		
			<line fill="#C7C7C7" stroke="url(#SVGID_16_)" stroke-width="2" stroke-miterlimit="10" x1="465.2" y1="439.2" x2="712.9" y2="300.1"/>
		<polygon fill="#F2F2F2" points="168.9,311.4 204.9,292.2 192.2,287 		"/>
	</g>
	<g id="Montre">
		<g opacity="0.17">
			
				<image overflow="visible" width="190" height="153" xlink:href="57195A336B2CF0DA.png"  transform="matrix(1 0 0 1 616.825 162)">
			</image>
		</g>
		<linearGradient id="SVGID_17_" gradientUnits="userSpaceOnUse" x1="588.4086" y1="120.7159" x2="672.9962" y2="227.59">
			<stop  offset="0" style="stop-color:#838487"/>
			<stop  offset="1" style="stop-color:#808082"/>
		</linearGradient>
		<path fill="url(#SVGID_17_)" d="M582.2,116.4c0,0,20.1-1.7,35.6,4.3c14.4,5.6,28.6,12.1,45.2,36.2c22,32,26,66.3,26.5,78.5
			c1.1,25.2-4.3,43-4.3,43l-12.5,7.3L582.2,116.4z"/>
		<linearGradient id="SVGID_18_" gradientUnits="userSpaceOnUse" x1="536.1627" y1="123.1281" x2="684.9127" y2="283.6281">
			<stop  offset="0" style="stop-color:#B3B4B7"/>
			<stop  offset="1" style="stop-color:#ADAEB1"/>
		</linearGradient>
		<path fill="url(#SVGID_18_)" d="M535.3,150.9l27.5,96.2l109.8,38.7c0,0,9.3-8.8,6.3-54s-29.4-92.4-57.9-105.6
			c-22.1-10.2-27.4-9.2-35.4-9.8c-0.5,0-1.1,0-1.8,0c-9.9,0.1-36.3,5-48.5,33.5"/>
		<path fill="#FFFFFF" d="M539.1,171.6l16-15.1c0,0,15.8-15.8,24.9-16.1c9.1-0.3,12.6-3.3,25,2s31.7,22.1,37.8,34.8
			c6.1,12.7,16.5,30.1,18,45.3c1.5,15.2,3.7,39.1-5.1,55.3s-11.2,13.4-11.2,13.4l-92.6-38.5L539.1,171.6z"/>
		<path fill="#808082" d="M600,140.1"/>
		<linearGradient id="SVGID_19_" gradientUnits="userSpaceOnUse" x1="552.6616" y1="209.4447" x2="663.3981" y2="209.4447">
			<stop  offset="0" style="stop-color:#333333"/>
			<stop  offset="1" style="stop-color:#E1E1E1"/>
		</linearGradient>
		<path fill="none" stroke="url(#SVGID_19_)" stroke-width="4" stroke-miterlimit="10" d="M554.2,157.4
			c19.2-21.6,36.3-18.5,42.7-17.3c49,8.9,80.3,97.5,56.3,140.6"/>
		<path fill="#454344" d="M571.9,191.9l3.9-6l21.3,28.6c0,0,2.9-0.6,3.9,0.4s30.6-29,30.6-29l3,5l-32.3,29.8c0,0,1.2-0.8-2,1.3
			c-1.6,1-1.1,0.3-2.7-2.3c-1-1.7-4,0.7-4,0.7L571.9,191.9z"/>
		<ellipse fill="#454344" cx="597.9" cy="219" rx="4.9" ry="5.1"/>
		<line fill="#828386" stroke="#666666" stroke-width="2" stroke-miterlimit="10" x1="571.3" y1="154.2" x2="578.2" y2="170.1"/>
		<line fill="none" stroke="#666666" stroke-width="2" stroke-miterlimit="10" x1="599.8" y1="152" x2="599.8" y2="169"/>
		<line fill="none" stroke="#666666" stroke-width="2" stroke-miterlimit="10" x1="625.7" y1="171.6" x2="619.3" y2="182.6"/>
		<line fill="none" stroke="#777777" stroke-width="2" stroke-miterlimit="10" x1="644.2" y1="201.9" x2="633.2" y2="207.4"/>
		<line fill="none" stroke="#7A7A7A" stroke-width="2" stroke-miterlimit="10" x1="650.2" y1="238.2" x2="637.7" y2="234.1"/>
		<polygon fill="#FFFFFF" points="672.7,285.7 523.8,234.1 534.6,253.9 656.8,296.6 		"/>
		<path fill="#FFFFFF" stroke="#000000" stroke-miterlimit="10" d="M763.2,220.4"/>
		<line fill="none" stroke="#E1E1E1" stroke-width="0.5" stroke-miterlimit="10" x1="651.5" y1="278.4" x2="555" y2="245.3"/>
		<line fill="none" stroke="#7A7A7A" stroke-width="2" stroke-miterlimit="10" x1="643.7" y1="261.8" x2="632.8" y2="253.9"/>
	</g>
	<g id="Ipad">
		<g opacity="0.45">
			
				<image overflow="visible" width="202" height="190" xlink:href="57195A336B2CF0DD.png"  transform="matrix(1 0 0 1 494.825 186)">
			</image>
		</g>
		<linearGradient id="SVGID_20_" gradientUnits="userSpaceOnUse" x1="322.2851" y1="86.4818" x2="565.8959" y2="302.3281">
			<stop  offset="0" style="stop-color:#3C3C3C"/>
			<stop  offset="1" style="stop-color:#121212"/>
		</linearGradient>
		<path fill="url(#SVGID_20_)" d="M327.6,39.2l227.1,82.6c0,0,14.5,6.1,14.6,16.2c0,10.1-0.1,197.2-0.1,197.2s-1.9,10.3-14.1,6.2
			c-12.2-4.1-160.7-58.7-237-86.2c-4-1.5-4.1-12-4.1-12V45.3C313.8,45.3,317.1,35.4,327.6,39.2z"/>
		<linearGradient id="SVGID_21_" gradientUnits="userSpaceOnUse" x1="316.0134" y1="186.5568" x2="570.0663" y2="186.5568">
			<stop  offset="0" style="stop-color:#E1E1E1"/>
			<stop  offset="1" style="stop-color:#C7C7C7"/>
		</linearGradient>
		<path fill="none" stroke="url(#SVGID_21_)" stroke-miterlimit="10" d="M316.5,41.1c0,0,1.7-4.9,12.4-1.5
			c10.7,3.4,223.9,81.4,223.9,81.4s16.5,5.4,16.5,18c0,12.6,0.3,196.1,0.3,196.1"/>
		
			<linearGradient id="SVGID_22_" gradientUnits="userSpaceOnUse" x1="890.1927" y1="24.7353" x2="896.2628" y2="30.1135" gradientTransform="matrix(0.893 -0.4502 0.484 0.96 -254.3857 609.2609)">
			<stop  offset="0" style="stop-color:#AEAEAE"/>
			<stop  offset="1" style="stop-color:#666666"/>
		</linearGradient>
		<path fill="url(#SVGID_22_)" stroke="#4D4D4D" stroke-width="3" stroke-miterlimit="10" d="M560.4,231.4c1.4,2.7,0.7,5.8-1.6,7
			c-2.2,1.1-5.2-0.2-6.5-2.9s-0.7-5.8,1.6-7C556.1,227.4,559.1,228.7,560.4,231.4z"/>
		<polygon fill="#E1E1E1" points="332.9,63.5 334.3,237.4 543.3,312.7 543.7,139.1 		"/>
		<g>
			<g>
				<g enable-background="new    ">
					<defs>
						<polygon id="SVGID_54_" enable-background="new    " points="352,99.2 352.5,90.9 390.6,104.7 390,113.1 						"/>
					</defs>
					<clipPath id="SVGID_23_">
						<use xlink:href="#SVGID_54_"  overflow="visible"/>
					</clipPath>
					<g clip-path="url(#SVGID_23_)">
						<g>
							<g>
								<g>
									<path fill="#CD323F" d="M354.3,96.5C354.3,96.4,354.3,96.4,354.3,96.5l0-0.1c-0.1-0.4-0.2-0.8-0.2-1.1
										c0.1-1.1,0.9-1.7,1.8-1.4c0.9,0.3,1.6,1.5,1.5,2.6c0,0.4-0.2,0.7-0.4,1c-0.2,0.3-1.1,1.6-1.4,1.5
										C355.2,98.7,354.5,97,354.3,96.5 M356,92.2c-1.9-0.7-3.6,0.6-3.7,2.9c-0.2,2.3,1.3,4.7,3.2,5.4c1.9,0.7,3.6-0.6,3.7-2.9
										C359.3,95.3,357.9,92.8,356,92.2"/>
									<path fill="#FFFFFF" d="M355.6,96.5c-0.4-0.1-0.6-0.6-0.6-1c0-0.4,0.3-0.7,0.7-0.5c0.4,0.1,0.6,0.6,0.6,1
										C356.3,96.4,356,96.7,355.6,96.5 M355.8,93.8c-0.9-0.3-1.7,0.3-1.8,1.4c0,0.4,0,0.8,0.2,1.1l0,0.1c0,0,0,0,0,0.1
										c0-0.1,0-0.1,0-0.1l2.7,1c0,0,0,0,0,0c0.2-0.2,0.3-0.6,0.4-1C357.4,95.3,356.7,94.2,355.8,93.8"/>
									<path fill="#FFFFFF" d="M357,97.3l-2.7-1c0,0,0,0,0,0.1c0.2,0.5,0.9,2.3,1.2,2.4C355.8,99,356.8,97.7,357,97.3
										C357,97.4,357,97.3,357,97.3"/>
									<path fill="#CD323F" d="M355.7,95c-0.4-0.1-0.7,0.1-0.7,0.5c0,0.4,0.2,0.9,0.6,1c0.4,0.1,0.7-0.1,0.7-0.5
										C356.4,95.6,356.1,95.1,355.7,95"/>
									<polyline fill="#1A1A1A" points="364.5,96.7 361.3,95.5 361.3,96.1 362.6,96.5 362.3,100.9 362.9,101.1 363.2,96.7 
										364.5,97.2 364.5,96.7 									"/>
									<path fill="#1A1A1A" d="M366.3,98.6c-0.2-0.1-0.4-0.1-0.6,0c-0.2,0.1-0.3,0.2-0.5,0.5l0,0l0.1-0.8l-0.5-0.2l-0.2,3.6
										l0.5,0.2l0.1-1.6c0-0.2,0.1-0.4,0.1-0.6c0.1-0.2,0.1-0.3,0.2-0.4c0.1-0.1,0.2-0.1,0.3-0.2c0.1,0,0.3,0,0.5,0.1L366.3,98.6
										C366.3,98.6,366.3,98.6,366.3,98.6"/>
									<path fill="#1A1A1A" d="M367.4,102.3c-0.1,0-0.2-0.1-0.2-0.1l-0.2-0.2l-0.1-0.2c0-0.1,0-0.2,0-0.3c0-0.2,0-0.3,0.1-0.3
										c0.1-0.1,0.1-0.1,0.2-0.1c0.1,0,0.2,0,0.3,0c0.1,0,0.2,0,0.3,0.1c0.1,0,0.2,0,0.3,0c0.1,0,0.2,0,0.3,0l0,0.6
										c0,0.1,0,0.2-0.1,0.2c0,0.1-0.1,0.1-0.2,0.2c-0.1,0.1-0.2,0.1-0.3,0.1C367.7,102.4,367.6,102.4,367.4,102.3 M367.9,99.2
										c-0.2-0.1-0.3-0.1-0.5-0.1c-0.1,0-0.3,0-0.4,0.1c-0.1,0.1-0.2,0.1-0.3,0.3c-0.1,0.1-0.1,0.3-0.1,0.5l0.5,0.2
										c0-0.3,0.1-0.4,0.3-0.5c0.1,0,0.3,0,0.5,0c0.1,0,0.2,0.1,0.2,0.1c0.1,0,0.1,0.1,0.2,0.2l0.1,0.2c0,0.1,0.1,0.2,0,0.3
										c0,0.1,0,0.2-0.1,0.2c-0.1,0-0.1,0.1-0.2,0c-0.1,0-0.2,0-0.3,0c-0.1,0-0.2-0.1-0.4-0.1c-0.1,0-0.3,0-0.4,0
										c-0.1,0-0.2,0-0.3,0.1c-0.1,0.1-0.2,0.1-0.2,0.2c-0.1,0.1-0.1,0.3-0.1,0.5c0,0.2,0,0.3,0,0.5c0,0.1,0.1,0.3,0.2,0.4
										c0.1,0.1,0.2,0.2,0.3,0.3c0.1,0.1,0.2,0.1,0.4,0.2c0.2,0.1,0.4,0.1,0.6,0.1c0.2,0,0.3-0.1,0.5-0.2c0,0.2,0,0.3,0.1,0.4
										c0.1,0.1,0.2,0.2,0.3,0.2c0.2,0.1,0.3,0.1,0.4,0l0-0.5l-0.1,0c-0.1,0-0.1-0.1-0.1-0.1c0-0.1,0-0.2,0-0.3l0.1-1.8
										c0-0.2,0-0.4-0.1-0.5c-0.1-0.2-0.1-0.3-0.2-0.4c-0.1-0.1-0.2-0.2-0.4-0.3C368.2,99.3,368.1,99.3,367.9,99.2"/>
									<path fill="#1A1A1A" d="M370.8,103.6c-0.2-0.1-0.3-0.1-0.4-0.3c-0.1-0.1-0.2-0.3-0.3-0.4c-0.1-0.2-0.1-0.3-0.1-0.5
										c0-0.2,0-0.3,0-0.5c0-0.2,0-0.3,0.1-0.5c0-0.2,0.1-0.3,0.2-0.4c0.1-0.1,0.2-0.2,0.3-0.2c0.1,0,0.3,0,0.4,0
										c0.2,0.1,0.3,0.2,0.4,0.3c0.1,0.1,0.2,0.3,0.3,0.4c0.1,0.2,0.1,0.3,0.1,0.5c0,0.2,0,0.3,0,0.5c0,0.2,0,0.3-0.1,0.5
										c0,0.1-0.1,0.3-0.2,0.4c-0.1,0.1-0.2,0.2-0.3,0.2C371.1,103.6,371,103.6,370.8,103.6 M372.5,99.6l-0.5-0.2l-0.1,1.8l0,0
										c0-0.1-0.1-0.2-0.2-0.3c-0.1-0.1-0.2-0.2-0.2-0.3c-0.1-0.1-0.2-0.1-0.3-0.2c-0.1-0.1-0.2-0.1-0.2-0.1
										c-0.2-0.1-0.4-0.1-0.6-0.1c-0.2,0-0.3,0.1-0.4,0.2c-0.1,0.1-0.2,0.3-0.3,0.5c-0.1,0.2-0.1,0.4-0.1,0.7c0,0.3,0,0.5,0,0.7
										c0,0.2,0.1,0.5,0.2,0.7c0.1,0.2,0.2,0.4,0.4,0.6c0.2,0.2,0.4,0.3,0.6,0.4c0.2,0.1,0.4,0.1,0.6,0.1c0.2,0,0.3-0.1,0.4-0.3
										l0,0l0,0.5l0.5,0.2L372.5,99.6"/>
									<path fill="#1A1A1A" d="M373.4,102.8c0-0.1,0.1-0.3,0.1-0.4c0.1-0.1,0.1-0.2,0.2-0.3c0.1-0.1,0.2-0.1,0.3-0.1
										c0.1,0,0.2,0,0.3,0c0.1,0,0.2,0.1,0.3,0.2c0.1,0.1,0.2,0.2,0.2,0.3c0.1,0.1,0.1,0.2,0.2,0.4c0,0.1,0.1,0.3,0,0.4
										L373.4,102.8 M374.4,101.6c-0.2-0.1-0.4-0.1-0.6-0.1c-0.2,0-0.3,0.1-0.5,0.2c-0.1,0.1-0.2,0.3-0.3,0.5
										c-0.1,0.2-0.1,0.4-0.2,0.7c0,0.3,0,0.5,0,0.8c0,0.3,0.1,0.5,0.2,0.7c0.1,0.2,0.2,0.4,0.4,0.5c0.2,0.2,0.4,0.3,0.6,0.4
										c0.3,0.1,0.6,0.1,0.9,0c0.2-0.1,0.4-0.4,0.5-0.7l-0.5-0.2c-0.1,0.2-0.2,0.4-0.3,0.4c-0.1,0.1-0.3,0.1-0.5,0
										c-0.2-0.1-0.3-0.1-0.4-0.3c-0.1-0.1-0.2-0.2-0.3-0.4c-0.1-0.1-0.1-0.3-0.1-0.4c0-0.2,0-0.3,0-0.5l2.2,0.8
										c0-0.2,0-0.4,0-0.7c0-0.2-0.1-0.5-0.2-0.7c-0.1-0.2-0.2-0.5-0.4-0.6C374.9,101.8,374.6,101.7,374.4,101.6"/>
									<polyline fill="#1A1A1A" points="380.4,102.5 379.7,102.2 378.1,105.9 377.1,101.3 376.4,101 376.1,105.9 376.6,106.1 
										376.9,102 376.9,102 377.9,106.5 378.3,106.7 379.9,103.1 379.9,103.1 379.6,107.2 380.1,107.4 380.4,102.5 									"/>
									<path fill="#1A1A1A" d="M381.9,107.6c-0.1,0-0.2-0.1-0.2-0.1l-0.2-0.2l-0.1-0.2c0-0.1,0-0.2,0-0.3c0-0.2,0-0.3,0.1-0.3
										c0.1-0.1,0.1-0.1,0.2-0.1c0.1,0,0.2,0,0.3,0c0.1,0,0.2,0,0.3,0.1c0.1,0,0.2,0,0.3,0c0.1,0,0.2,0,0.3,0l0,0.6
										c0,0.1,0,0.2-0.1,0.2c0,0.1-0.1,0.1-0.2,0.2c-0.1,0.1-0.2,0.1-0.3,0.1C382.2,107.6,382,107.6,381.9,107.6 M382.4,104.5
										c-0.2-0.1-0.3-0.1-0.5-0.1c-0.1,0-0.3,0-0.4,0.1c-0.1,0-0.2,0.1-0.3,0.3c-0.1,0.1-0.1,0.3-0.1,0.5l0.5,0.2
										c0-0.3,0.1-0.4,0.3-0.5c0.1,0,0.3,0,0.5,0c0.1,0,0.2,0.1,0.2,0.1c0.1,0,0.1,0.1,0.2,0.2l0.1,0.2c0,0.1,0,0.2,0,0.3
										c0,0.1,0,0.2-0.1,0.2c-0.1,0-0.1,0.1-0.2,0c-0.1,0-0.2,0-0.3,0c-0.1,0-0.2-0.1-0.4-0.1c-0.1,0-0.2,0-0.4,0
										c-0.1,0-0.2,0-0.3,0.1c-0.1,0.1-0.2,0.1-0.2,0.2c-0.1,0.1-0.1,0.3-0.1,0.5c0,0.2,0,0.3,0.1,0.5c0,0.1,0.1,0.3,0.2,0.4
										c0.1,0.1,0.2,0.2,0.3,0.3c0.1,0.1,0.2,0.1,0.4,0.2c0.2,0.1,0.4,0.1,0.6,0.1c0.2,0,0.3-0.1,0.5-0.2c0,0.2,0,0.3,0.1,0.4
										c0.1,0.1,0.2,0.2,0.3,0.2c0.1,0.1,0.3,0.1,0.4,0l0-0.5l-0.1,0c-0.1,0-0.1-0.1-0.1-0.2c0-0.1,0-0.2,0-0.3l0.1-1.8
										c0-0.2,0-0.4-0.1-0.5c-0.1-0.2-0.1-0.3-0.2-0.4c-0.1-0.1-0.2-0.2-0.4-0.3C382.6,104.6,382.5,104.5,382.4,104.5"/>
									<path fill="#1A1A1A" d="M385.4,108.9c-0.2-0.1-0.3-0.2-0.4-0.3c-0.1-0.1-0.2-0.3-0.3-0.4c-0.1-0.1-0.1-0.3-0.1-0.5
										c0-0.2,0-0.4,0-0.5c0-0.2,0-0.3,0.1-0.5c0-0.1,0.1-0.3,0.2-0.4c0.1-0.1,0.2-0.2,0.3-0.2c0.1,0,0.3,0,0.4,0
										c0.2,0.1,0.3,0.1,0.4,0.3c0.1,0.1,0.2,0.3,0.3,0.4c0.1,0.1,0.1,0.3,0.1,0.5c0,0.2,0,0.3,0,0.5c0,0.2,0,0.3-0.1,0.5
										c0,0.2-0.1,0.3-0.2,0.4c-0.1,0.1-0.2,0.2-0.3,0.2C385.7,108.9,385.6,108.9,385.4,108.9 M385.7,105.7
										c-0.2-0.1-0.4-0.1-0.6-0.1c-0.2,0-0.3,0.1-0.4,0.3l0,0l0-0.5l-0.5-0.2l-0.3,4.9l0.5,0.2l0.1-1.8l0,0c0,0.1,0.1,0.2,0.2,0.3
										c0.1,0.1,0.1,0.2,0.2,0.3c0.1,0.1,0.2,0.1,0.3,0.2c0.1,0,0.2,0.1,0.2,0.1c0.2,0.1,0.4,0.1,0.6,0.1c0.2,0,0.3-0.1,0.4-0.2
										c0.1-0.1,0.2-0.3,0.3-0.5c0.1-0.2,0.1-0.4,0.1-0.7c0-0.3,0-0.5,0-0.7c0-0.2-0.1-0.5-0.2-0.7c-0.1-0.2-0.2-0.4-0.4-0.6
										C386.1,105.9,385.9,105.8,385.7,105.7"/>
									<path fill="#1A1A1A" d="M388.8,110.1c-0.2-0.1-0.3-0.2-0.4-0.3c-0.1-0.1-0.2-0.3-0.3-0.4c-0.1-0.1-0.1-0.3-0.1-0.5
										c0-0.2,0-0.4,0-0.5c0-0.2,0-0.3,0.1-0.5c0-0.1,0.1-0.3,0.2-0.4c0.1-0.1,0.2-0.2,0.3-0.2c0.1,0,0.3,0,0.4,0
										c0.2,0.1,0.3,0.1,0.4,0.3c0.1,0.1,0.2,0.3,0.3,0.4c0.1,0.1,0.1,0.3,0.1,0.5c0,0.2,0,0.3,0,0.5c0,0.2,0,0.3-0.1,0.5
										c0,0.2-0.1,0.3-0.2,0.4c-0.1,0.1-0.2,0.2-0.3,0.2C389.1,110.2,389,110.1,388.8,110.1 M389.1,106.9
										c-0.2-0.1-0.4-0.1-0.6-0.1c-0.2,0-0.3,0.1-0.4,0.3l0,0l0-0.5l-0.5-0.2l-0.3,4.9l0.5,0.2l0.1-1.8l0,0c0,0.1,0.1,0.2,0.2,0.3
										c0.1,0.1,0.2,0.2,0.2,0.3c0.1,0.1,0.2,0.1,0.3,0.2c0.1,0,0.2,0.1,0.2,0.1c0.2,0.1,0.4,0.1,0.6,0.1c0.2,0,0.3-0.1,0.4-0.2
										c0.1-0.1,0.2-0.3,0.3-0.5c0.1-0.2,0.1-0.4,0.1-0.7c0-0.3,0-0.5,0-0.7c0-0.2-0.1-0.5-0.2-0.7c-0.1-0.2-0.2-0.4-0.4-0.6
										C389.5,107.1,389.3,107,389.1,106.9"/>
								</g>
							</g>
						</g>
					</g>
				</g>
			</g>
		</g>
		<polygon fill="#AEAEAE" points="367.8,120.5 495.8,166.1 495.8,173.9 367.8,128.1 		"/>
		<polygon fill="#AEAEAE" points="397.8,146.1 495.8,181.1 495.8,188.9 397.8,153.8 		"/>
		<polygon fill="#AEAEAE" points="397.8,160.1 495.8,195.1 495.8,202.9 397.8,167.8 		"/>
		<line fill="none" stroke="#333333" stroke-miterlimit="10" x1="415.6" y1="115.1" x2="435.3" y2="122.4"/>
		<line fill="none" stroke="#333333" stroke-miterlimit="10" x1="461.6" y1="131.1" x2="481.3" y2="138.4"/>
		<line fill="none" stroke="#333333" stroke-miterlimit="10" x1="438.6" y1="123.1" x2="458.3" y2="130.4"/>
	</g>
	<g id="IpadMini">
		<g opacity="0.26">
			
				<image overflow="visible" width="148" height="197" xlink:href="57195A336B2CF0DE.png"  transform="matrix(1 0 0 1 428.825 199)">
			</image>
		</g>
		<linearGradient id="SVGID_24_" gradientUnits="userSpaceOnUse" x1="314.0205" y1="171.077" x2="495.266" y2="331.6658">
			<stop  offset="0" style="stop-color:#3C3C3C"/>
			<stop  offset="1" style="stop-color:#121212"/>
		</linearGradient>
		<path fill="url(#SVGID_24_)" d="M317.9,135.9l169,61.5c0,0,10.8,4.6,10.8,12.1s-0.1,146.8-0.1,146.8s-1.4,7.7-10.5,4.6
			c-9.1-3.1-119.5-43.7-176.3-64.2c-3-1.1-3-8.9-3-8.9V140.4C307.8,140.4,310.1,133,317.9,135.9z"/>
		<linearGradient id="SVGID_25_" gradientUnits="userSpaceOnUse" x1="309.1023" y1="245.4591" x2="498.45" y2="245.4591">
			<stop  offset="0" style="stop-color:#E1E1E1"/>
			<stop  offset="1" style="stop-color:#C7C7C7"/>
		</linearGradient>
		<path fill="none" stroke="url(#SVGID_25_)" stroke-miterlimit="10" d="M309.6,137.3c0,0,1.2-3.6,9.2-1.1s166.6,60.6,166.6,60.6
			s12.2,4,12.2,13.4s0.2,146,0.2,146"/>
		
			<linearGradient id="SVGID_26_" gradientUnits="userSpaceOnUse" x1="808.8617" y1="35.843" x2="813.3798" y2="39.8462" gradientTransform="matrix(0.893 -0.4502 0.484 0.96 -254.3857 609.2609)">
			<stop  offset="0" style="stop-color:#AEAEAE"/>
			<stop  offset="1" style="stop-color:#666666"/>
		</linearGradient>
		<path fill="url(#SVGID_26_)" stroke="#4D4D4D" stroke-width="3" stroke-miterlimit="10" d="M491.1,278.9c1,2,0.5,4.3-1.2,5.2
			s-3.8-0.1-4.9-2.2s-0.5-4.3,1.2-5.2S490.1,276.9,491.1,278.9z"/>
		
			<linearGradient id="SVGID_27_" gradientUnits="userSpaceOnUse" x1="666.7353" y1="-100.244" x2="668.8285" y2="-98.3894" gradientTransform="matrix(0.8756 -0.483 0.483 0.8756 -222.8005 628.0014)">
			<stop  offset="0" style="stop-color:#AEAEAE"/>
			<stop  offset="1" style="stop-color:#666666"/>
		</linearGradient>
		<path fill="url(#SVGID_27_)" d="M315.1,217.8c0.5,0.9,0.4,2-0.3,2.4c-0.7,0.4-1.7-0.1-2.2-1c-0.5-0.9-0.4-2,0.3-2.4
			S314.6,216.9,315.1,217.8z"/>
		<polygon fill="#E1E1E1" points="321.8,153.9 322.8,283.4 478.4,339.4 478.7,210.2 		"/>
		<path fill="#6FC9EA" d="M376.6,265l23.7,7.9c0,0,2.9,0.7,2.1,5.1c-0.6,3.1-5.8,1.9-5.8,1.9l-20.8-6.8c0,0-2.8-1.2-2-5.4
			C374.4,265.1,376.6,265,376.6,265z"/>
		<path fill="#1690C3" d="M368.8,238.6c0.5,0.2,43,15,43,15v7.3l-43-15.3V238.6z"/>
		<path fill="#1690C3" d="M368.8,246.6c0.5,0.2,43,15,43,15v7.3l-43-15.3V246.6z"/>
		<line fill="#E1E1E1" stroke="#333333" stroke-miterlimit="10" x1="372" y1="243.4" x2="384" y2="247.6"/>
		<line fill="#E1E1E1" stroke="#FFFFFF" stroke-miterlimit="10" x1="387.3" y1="248.4" x2="410.7" y2="256.5"/>
		<line fill="#E1E1E1" stroke="#333333" stroke-miterlimit="10" x1="372" y1="251.4" x2="384" y2="255.6"/>
		<line fill="#E1E1E1" stroke="#FFFFFF" stroke-miterlimit="10" x1="391.2" y1="257.8" x2="406.8" y2="263.2"/>
		<polygon fill="#1690C3" points="321.8,160.9 478.8,217.5 478.8,209.9 321.8,154 		"/>
		<polyline fill="#1690C3" points="384.8,211.7 398.8,216.4 398.8,233 384.8,227.9 384.8,212 		"/>
	</g>
	<g opacity="0.47">
		<image overflow="visible" width="199" height="132" xlink:href="57195A336B2CF0DC.png"  transform="matrix(1 0 0 1 120.825 294)">
		</image>
	</g>
	<g opacity="0.29">
		<image overflow="visible" width="140" height="111" xlink:href="57195A336B2CF0DB.png"  transform="matrix(1 0 0 1 191.825 316)">
		</image>
	</g>
	<g>
		<path fill="#333333" d="M166.4,381.9c-7,0-12.7,5.7-12.7,12.7c0,3.5,1.4,6.6,3.6,8.9c2.3,2.3,5.5,3.8,9.1,3.8
			c7,0,12.7-5.7,12.7-12.7S173.4,381.9,166.4,381.9z M166,400.4c-3.4,0-6.1-2.8-6.1-6.1c0-3.4,2.7-6.1,6.1-6.1
			c3.4,0,6.1,2.8,6.1,6.1C172.2,397.7,169.4,400.4,166,400.4z"/>
		<path fill="#333333" d="M239.3,381.9c-7,0-12.7,5.7-12.7,12.7s5.7,12.7,12.7,12.7c7,0,12.7-5.7,12.7-12.7S246.3,381.9,239.3,381.9
			z M239,400.4c-3.4,0-6.1-2.8-6.1-6.1c0-3.4,2.8-6.1,6.1-6.1c3.4,0,6.1,2.8,6.1,6.1C245.1,397.7,242.3,400.4,239,400.4z"/>
		<g>
			<linearGradient id="SVGID_28_" gradientUnits="userSpaceOnUse" x1="160.5964" y1="348.0493" x2="259.5964" y2="403.5493">
				<stop  offset="0" style="stop-color:#4A7AA0"/>
				<stop  offset="1" style="stop-color:#0071B7"/>
			</linearGradient>
			<path fill="url(#SVGID_28_)" d="M222.3,333.8c-0.3-4.8-5.3-5.5-5.3-5.5h-73.2v0.9v61.3h6.3c1.7-7.4,8.4-12.8,16.2-12.8
				c7.9,0,14.5,5.5,16.2,12.8h39.7C222.3,390.5,222.3,334.2,222.3,333.8z"/>
		</g>
		<path fill="#828282" d="M261.2,364.4c-0.8-2.2-6.9-13.8-8.7-15.4c-1.8-1.6-2.8-2.6-3.8-2.6c-1,0-21.3,0-21.3,0v37
			c0,0,4-5.2,12-5.2c12.7,0,15.8,12.6,15.8,12.6h5.6c0,0,1.4-0.8,1.4-1.8c0-1,0-20.8,0-20.8S261.8,366,261.2,364.4z M233.8,362.4
			v-11.6c0,0,14-0.1,14.7,0c0.7,0.1,1.1,0.8,1.1,0.8c3.2,4.1,6.4,10.8,6.4,10.8H233.8z"/>
		<line fill="none" stroke="#FFFFFF" stroke-width="7" stroke-miterlimit="10" x1="164.8" y1="362.5" x2="201.8" y2="362.5"/>
		<line fill="none" stroke="#FFFFFF" stroke-width="7" stroke-miterlimit="10" x1="155.8" y1="352.5" x2="210.8" y2="352.5"/>
	</g>
	
		<rect x="125.2" y="140.9" transform="matrix(0.7561 -0.6545 0.6545 0.7561 -69.04 142.9892)" fill="#D28B28" width="64.2" height="46.4"/>
	<g id="Chips">
		<rect x="176.6" y="121.4" fill="#E83424" width="12.8" height="65.5"/>
		<rect x="189.4" y="121.4" fill="#961C20" width="12" height="65.5"/>
		<rect x="189.4" y="118.1" fill="#D1D2CF" width="14.5" height="3.2"/>
		<path fill="#EFF0F0" d="M180.5,144.1c0,4.9,3.9,8.8,8.8,8.8v-17.6C184.5,135.3,180.5,139.3,180.5,144.1z"/>
		<rect x="174.9" y="118.1" fill="#F1F2F2" width="14.5" height="3.2"/>
		<path fill="#D1D2CF" d="M189.4,135.3v17.6c4.9,0,8.8-3.9,8.8-8.8C198.2,139.3,194.2,135.3,189.4,135.3z"/>
		<path fill="#D28B28" d="M187,144.4c-0.5,0-1,0.2-1.4,0.5c0,0,0,0,0,0c-1.4,1.1-2.7-0.2-2.7,0c-0.2,4.9,3.8,4.3,4,4.3
			c1.2,0,2.2-1.2,2.2-2.5C189.2,145.5,188.2,144.4,187,144.4z"/>
		<path fill="#AE6D29" d="M191.4,144.4c0.5,0,1,0.2,1.4,0.5c0,0,0,0,0,0c1.4,1.1,2.7-0.2,2.7,0c0.2,4.9-3.8,4.3-4,4.3
			c-1.2,0-2.2-1.2-2.2-2.5C189.2,145.5,190.2,144.4,191.4,144.4z"/>
	</g>
	<g id="Lait">
		<path fill="#ECECED" stroke="#CBCDCE" stroke-miterlimit="10" d="M122.9,139.6c1.2-0.4,4.3-1.2,5.6-1.3c0.4,0,2.1-0.2,3.1,0.4
			c0.4,0.3,0.8,0.6,1.2,1.6c0.4,1.2-0.1,2.7-0.1,3.1c0,0-0.2,0.7,0,1.4c0.7,2.5,2.2,4,4,5.1c2.9,1.8,7.1,4.6,7.7,5
			c1.6,0.9,3.7,4.3,4,5.2c0.5,1.6,8.7,26.7,11.7,35.9c0.6,1.8,0.3,4.1,0.1,4.9c-0.4,2.3-2.2,5.6-4.3,7.4c-1.2,1-4.8,3-9,4.4"/>
		<path fill="#FFFFFF" stroke="#CBCDCE" stroke-miterlimit="10" d="M123.4,139.4c-1.2,0.4-3.7,1.4-4.8,2.1c-0.4,0.2-1.8,1.1-2.2,2.2
			c-0.2,0.5-0.3,1,0,2c0.4,1.2,1.7,2.1,1.9,2.4c0,0,0.6,0.5,0.8,1.2c0.9,2.4,0.6,4.5-0.2,6.5c-1.3,3.1-3,7.9-3.3,8.5
			c-0.8,1.7-0.4,5.6-0.1,6.5c0.5,1.6,8.7,26.7,11.7,35.9c0.6,1.8,2.2,3.5,2.8,4.1c1.6,1.6,5.1,3.2,7.8,3.5c1.5,0.1,5.2-0.3,9.4-1.6"
			/>
		<g opacity="0.42">
			
				<linearGradient id="SVGID_29_" gradientUnits="userSpaceOnUse" x1="344.4504" y1="-231.4467" x2="351.8004" y2="-231.4467" gradientTransform="matrix(0.9507 -0.3102 0.3102 0.9507 -138.2314 471.7904)">
				<stop  offset="0" style="stop-color:#231F20;stop-opacity:0"/>
				<stop  offset="0.9104" style="stop-color:#231F20;stop-opacity:0.9104"/>
				<stop  offset="1" style="stop-color:#231F20"/>
			</linearGradient>
			<path fill="url(#SVGID_29_)" d="M124.6,143.1c0,0-3.5,1.2-7.3,1.4"/>
			
				<linearGradient id="SVGID_30_" gradientUnits="userSpaceOnUse" x1="344.3827" y1="-231.4422" x2="351.808" y2="-231.4422" gradientTransform="matrix(0.9507 -0.3102 0.3102 0.9507 -138.2314 471.7904)">
				<stop  offset="0" style="stop-color:#231F20;stop-opacity:0"/>
				<stop  offset="0.9104" style="stop-color:#231F20;stop-opacity:0.9104"/>
				<stop  offset="1" style="stop-color:#231F20"/>
			</linearGradient>
			<path fill="url(#SVGID_30_)" d="M124.5,143.4c-0.8,0.3-3.9,1.2-7.2,1.3l0-0.5c3.7-0.2,7.2-1.4,7.2-1.4l0.2,0.4
				C124.6,143.3,124.6,143.3,124.5,143.4z"/>
		</g>
		<g opacity="0.47">
			
				<linearGradient id="SVGID_31_" gradientUnits="userSpaceOnUse" x1="343.7004" y1="-228.7405" x2="351.8322" y2="-228.7405" gradientTransform="matrix(0.9507 -0.3102 0.3102 0.9507 -138.2314 471.7904)">
				<stop  offset="0" style="stop-color:#231F20;stop-opacity:0"/>
				<stop  offset="0.1842" style="stop-color:#262223;stop-opacity:0.1842"/>
				<stop  offset="0.3322" style="stop-color:#302C2D;stop-opacity:0.3322"/>
				<stop  offset="0.4677" style="stop-color:#403D3E;stop-opacity:0.4677"/>
				<stop  offset="0.5956" style="stop-color:#585556;stop-opacity:0.5956"/>
				<stop  offset="0.7183" style="stop-color:#757475;stop-opacity:0.7183"/>
				<stop  offset="0.8371" style="stop-color:#9A999A;stop-opacity:0.8371"/>
				<stop  offset="0.9506" style="stop-color:#C5C5C6;stop-opacity:0.9506"/>
				<stop  offset="1" style="stop-color:#DADBDC"/>
			</linearGradient>
			<path fill="url(#SVGID_31_)" d="M125.4,145.6c0,0-3.9,1.3-8,1.6"/>
			
				<linearGradient id="SVGID_32_" gradientUnits="userSpaceOnUse" x1="343.6226" y1="-228.7359" x2="351.8389" y2="-228.7359" gradientTransform="matrix(0.9507 -0.3102 0.3102 0.9507 -138.2314 471.7904)">
				<stop  offset="0" style="stop-color:#231F20;stop-opacity:0"/>
				<stop  offset="7.761335e-02" style="stop-color:#231F20;stop-opacity:7.761335e-02"/>
				<stop  offset="1" style="stop-color:#231F20"/>
			</linearGradient>
			<path fill="url(#SVGID_32_)" d="M125.3,145.9c-0.9,0.3-4.3,1.3-7.9,1.6l0-0.5c4.1-0.3,7.9-1.6,7.9-1.6l0.2,0.4
				C125.5,145.9,125.4,145.9,125.3,145.9z"/>
		</g>
		<g opacity="0.47">
			
				<linearGradient id="SVGID_33_" gradientUnits="userSpaceOnUse" x1="343.7004" y1="-227.7809" x2="351.8322" y2="-227.7809" gradientTransform="matrix(0.9507 -0.3102 0.3102 0.9507 -138.2314 471.7904)">
				<stop  offset="0" style="stop-color:#231F20;stop-opacity:0"/>
				<stop  offset="0.1842" style="stop-color:#262223;stop-opacity:0.1842"/>
				<stop  offset="0.3322" style="stop-color:#302C2D;stop-opacity:0.3322"/>
				<stop  offset="0.4677" style="stop-color:#403D3E;stop-opacity:0.4677"/>
				<stop  offset="0.5956" style="stop-color:#585556;stop-opacity:0.5956"/>
				<stop  offset="0.7183" style="stop-color:#757475;stop-opacity:0.7183"/>
				<stop  offset="0.8371" style="stop-color:#9A999A;stop-opacity:0.8371"/>
				<stop  offset="0.9506" style="stop-color:#C5C5C6;stop-opacity:0.9506"/>
				<stop  offset="1" style="stop-color:#DADBDC"/>
			</linearGradient>
			<path fill="url(#SVGID_33_)" d="M125.7,146.6c0,0-3.9,1.4-8,1.6"/>
			
				<linearGradient id="SVGID_34_" gradientUnits="userSpaceOnUse" x1="343.6226" y1="-227.7755" x2="351.8389" y2="-227.7755" gradientTransform="matrix(0.9507 -0.3102 0.3102 0.9507 -138.2314 471.7904)">
				<stop  offset="0" style="stop-color:#231F20;stop-opacity:0"/>
				<stop  offset="0.1393" style="stop-color:#231F20;stop-opacity:0.1393"/>
				<stop  offset="1" style="stop-color:#231F20"/>
			</linearGradient>
			<path fill="url(#SVGID_34_)" d="M125.6,146.8c-0.9,0.3-4.3,1.3-7.9,1.6l0-0.5c4.1-0.3,7.9-1.6,7.9-1.6l0.2,0.4
				C125.8,146.8,125.7,146.8,125.6,146.8z"/>
		</g>
		
			<linearGradient id="SVGID_35_" gradientUnits="userSpaceOnUse" x1="5766.5557" y1="-228.0331" x2="5766.5557" y2="-228.0331" gradientTransform="matrix(-0.9507 0.3102 0.3102 0.9507 5686.166 -1428.7976)">
			<stop  offset="0" style="stop-color:#231F20;stop-opacity:0"/>
			<stop  offset="0.1393" style="stop-color:#231F20;stop-opacity:0.1393"/>
			<stop  offset="1" style="stop-color:#231F20"/>
		</linearGradient>
		<path fill="url(#SVGID_35_)" d="M133.4,143.3"/>
		
			<linearGradient id="SVGID_36_" gradientUnits="userSpaceOnUse" x1="5774.5576" y1="-227.0773" x2="5774.5576" y2="-227.0773" gradientTransform="matrix(-0.9507 0.3102 0.3102 0.9507 5686.166 -1428.7976)">
			<stop  offset="0" style="stop-color:#231F20;stop-opacity:0"/>
			<stop  offset="0.1393" style="stop-color:#231F20;stop-opacity:0.1393"/>
			<stop  offset="1" style="stop-color:#231F20"/>
		</linearGradient>
		<path fill="url(#SVGID_36_)" d="M126,146.7"/>
		
			<linearGradient id="SVGID_37_" gradientUnits="userSpaceOnUse" x1="5753.9126" y1="-231.4422" x2="5761.3379" y2="-231.4422" gradientTransform="matrix(-0.9507 0.3102 0.3102 0.9507 5673.3208 -1424.6061)">
			<stop  offset="0" style="stop-color:#231F20;stop-opacity:0"/>
			<stop  offset="0.9104" style="stop-color:#231F20;stop-opacity:0.9104"/>
			<stop  offset="1" style="stop-color:#231F20"/>
		</linearGradient>
		<path opacity="0.42" fill="url(#SVGID_37_)" d="M124.8,143.2c0.8-0.3,3.8-1.3,6.6-3.2l-0.3-0.4c-3.1,2.1-6.6,3.1-6.6,3.1l0.1,0.4
			C124.6,143.3,124.7,143.3,124.8,143.2z"/>
		
			<linearGradient id="SVGID_38_" gradientUnits="userSpaceOnUse" x1="5752.0825" y1="-228.7359" x2="5760.2988" y2="-228.7359" gradientTransform="matrix(-0.9507 0.3102 0.3102 0.9507 5672.333 -1424.2837)">
			<stop  offset="0" style="stop-color:#231F20;stop-opacity:0"/>
			<stop  offset="7.761335e-02" style="stop-color:#231F20;stop-opacity:7.761335e-02"/>
			<stop  offset="1" style="stop-color:#231F20"/>
		</linearGradient>
		<path opacity="0.47" fill="url(#SVGID_38_)" d="M125.7,145.8c0.9-0.3,4.2-1.4,7.3-3.4l-0.3-0.4c-3.5,2.2-7.3,3.4-7.4,3.4l0.1,0.4
			C125.5,145.9,125.6,145.8,125.7,145.8z"/>
		
			<linearGradient id="SVGID_39_" gradientUnits="userSpaceOnUse" x1="5752.0825" y1="-227.7755" x2="5760.2988" y2="-227.7755" gradientTransform="matrix(-0.9507 0.3102 0.3102 0.9507 5672.333 -1424.2837)">
			<stop  offset="0" style="stop-color:#231F20;stop-opacity:0"/>
			<stop  offset="0.1393" style="stop-color:#231F20;stop-opacity:0.1393"/>
			<stop  offset="1" style="stop-color:#231F20"/>
		</linearGradient>
		<path opacity="0.47" fill="url(#SVGID_39_)" d="M126,146.7c0.9-0.3,4.2-1.4,7.3-3.4L133,143c-3.5,2.2-7.3,3.4-7.4,3.4l0.1,0.4
			C125.8,146.8,125.8,146.8,126,146.7z"/>
		<path fill="#FFFFFF" stroke="#231F20" stroke-width="5" stroke-miterlimit="10" d="M151.3,169.2"/>
		<path fill="#FFFFFF" stroke="#231F20" stroke-width="5" stroke-miterlimit="10" d="M156.2,184.3"/>
	</g>
	<polygon fill="#FFFFFF" points="109.9,186.4 216.1,140.2 210.3,205.4 126.3,252.2 	"/>
	<linearGradient id="SVGID_40_" gradientUnits="userSpaceOnUse" x1="162.9819" y1="258.8885" x2="187.6932" y2="277.9725">
		<stop  offset="0" style="stop-color:#C4C3AF"/>
		<stop  offset="1" style="stop-color:#B0AE9E"/>
	</linearGradient>
	<path fill="url(#SVGID_40_)" d="M113.8,316c0,0,24.9-43.8,60.2-64.9c72.5-43.5,86.8-9.3,86.8-9.3L113.8,316z"/>
	<polyline fill="none" stroke="#AEAEAE" stroke-width="8" stroke-miterlimit="10" points="121.7,236.3 134.8,274.9 202.3,236.3 	"/>
	<radialGradient id="SVGID_41_" cx="202.2339" cy="238.3545" r="11.1624" gradientUnits="userSpaceOnUse">
		<stop  offset="0" style="stop-color:#C7C7C7"/>
		<stop  offset="1.122129e-02" style="stop-color:#C5C5C5"/>
		<stop  offset="0.1992" style="stop-color:#A3A3A3"/>
		<stop  offset="0.3911" style="stop-color:#888888"/>
		<stop  offset="0.5863" style="stop-color:#757575"/>
		<stop  offset="0.7866" style="stop-color:#6A6A6A"/>
		<stop  offset="1" style="stop-color:#666666"/>
	</radialGradient>
	<path fill="url(#SVGID_41_)" stroke="#000000" stroke-width="8" stroke-miterlimit="10" d="M209.9,244.3
		c-4.2,5.4-11.1,7.1-15.3,3.8s-4.3-10.4-0.1-15.8s11.1-7.1,15.3-3.8C214.1,231.8,214.1,238.9,209.9,244.3z"/>
	<radialGradient id="SVGID_42_" cx="133.2339" cy="274.3545" r="11.1624" gradientUnits="userSpaceOnUse">
		<stop  offset="0" style="stop-color:#C7C7C7"/>
		<stop  offset="1.122129e-02" style="stop-color:#C5C5C5"/>
		<stop  offset="0.1992" style="stop-color:#A3A3A3"/>
		<stop  offset="0.3911" style="stop-color:#888888"/>
		<stop  offset="0.5863" style="stop-color:#757575"/>
		<stop  offset="0.7866" style="stop-color:#6A6A6A"/>
		<stop  offset="1" style="stop-color:#666666"/>
	</radialGradient>
	<path fill="url(#SVGID_42_)" stroke="#000000" stroke-width="8" stroke-miterlimit="10" d="M140.9,280.3
		c-4.2,5.4-11.1,7.1-15.3,3.8c-4.3-3.3-4.3-10.4-0.1-15.8s11.1-7.1,15.3-3.8C145.1,267.8,145.1,274.9,140.9,280.3z"/>
	<line fill="none" stroke="#AEAEAE" stroke-width="3" stroke-miterlimit="10" x1="144.7" y1="171.8" x2="118.2" y2="221.1"/>
	<line fill="none" stroke="#AEAEAE" stroke-width="8" stroke-miterlimit="10" x1="115.2" y1="183.5" x2="176.6" y2="221.5"/>
	<line fill="none" stroke="#AEAEAE" stroke-width="8" stroke-miterlimit="10" x1="162.3" y1="159.5" x2="213.4" y2="191.1"/>
	<line fill="none" stroke="#AEAEAE" stroke-width="3" stroke-miterlimit="10" x1="130.4" y1="176.6" x2="113.3" y2="208.2"/>
	<line fill="none" stroke="#AEAEAE" stroke-width="3" stroke-miterlimit="10" x1="214.4" y1="178.4" x2="197.5" y2="206.7"/>
	<line fill="none" stroke="#AEAEAE" stroke-width="3" stroke-miterlimit="10" x1="195.1" y1="147.9" x2="141.3" y2="245.3"/>
	<line fill="none" stroke="#AEAEAE" stroke-width="3" stroke-miterlimit="10" x1="180.1" y1="154.9" x2="123.3" y2="251.3"/>
	<line fill="none" stroke="#AEAEAE" stroke-width="3" stroke-miterlimit="10" x1="159.5" y1="234.3" x2="212.2" y2="140.2"/>
	<line fill="none" stroke="#AEAEAE" stroke-width="8" stroke-miterlimit="10" x1="112.7" y1="209.2" x2="156.9" y2="236.3"/>
	<line fill="none" stroke="#AEAEAE" stroke-width="3" stroke-miterlimit="10" x1="217.9" y1="151.4" x2="189.2" y2="202.8"/>
	<line fill="none" stroke="#AEAEAE" stroke-width="3" stroke-miterlimit="10" x1="161" y1="164.4" x2="120.7" y2="236.3"/>
	<line fill="none" stroke="#AEAEAE" stroke-width="8" stroke-miterlimit="10" x1="187.3" y1="148.5" x2="215.5" y2="165.9"/>
	<line fill="none" stroke="#AEAEAE" stroke-width="8" stroke-miterlimit="10" x1="140.3" y1="171.5" x2="201.8" y2="209.5"/>
	<line fill="none" stroke="#AEAEAE" stroke-width="3" stroke-miterlimit="10" x1="189.2" y1="202.8" x2="175.5" y2="227.4"/>
	<line fill="none" stroke="#AEAEAE" stroke-width="3" stroke-miterlimit="10" x1="197.5" y1="206.7" x2="191.8" y2="216.2"/>
	<path fill="none" stroke="#AEAEAE" stroke-width="8" stroke-miterlimit="10" d="M78.8,172.9c0,0,20.5-3.5,23,0
		c0.5,0.7,1.6,3.8,3.2,8.6c6.9,20.9,22.4,74.5,21.3,70.7c0,0,81.5-44.3,84-46.8s9.5-64.5,7-67S107,187.8,107,187.8"/>
	<ellipse transform="matrix(0.8 0.6001 -0.6001 0.8 119.4666 -10.5623)" fill="#BC272D" cx="75.6" cy="173.9" rx="9.1" ry="14.1"/>
	<g>
		<path fill="none" stroke="#4A7AA0" stroke-width="3" stroke-linecap="round" stroke-miterlimit="10" d="M259.5,335.8
			c2.7-0.5,5.7,0.3,7.9,2.4c2.2,2.1,3.1,5.1,2.7,7.9"/>
		<path fill="none" stroke="#4A7AA0" stroke-width="3" stroke-linecap="round" stroke-miterlimit="10" d="M259.5,330.2
			c4.1-0.4,8.4,0.9,11.6,3.9c3.2,3.1,4.7,7.3,4.5,11.4"/>
		<path fill="none" stroke="#4A7AA0" stroke-width="3" stroke-linecap="round" stroke-miterlimit="10" d="M259,324.4
			c5.7-0.6,11.7,1.3,16.2,5.5c4.3,4.1,6.4,9.6,6.3,15"/>
	</g>
	<g opacity="3.000000e-02">
		<path fill="none" stroke="#333333" stroke-width="2" stroke-linecap="round" stroke-miterlimit="10" d="M307.4,335.2
			c1.6,0.2,3.2,1.2,4.2,2.8c1,1.6,1.2,3.5,0.6,5.1"/>
		<path fill="none" stroke="#333333" stroke-width="2" stroke-linecap="round" stroke-miterlimit="10" d="M308,332
			c2.4,0.5,4.6,2.1,6.1,4.5c1.5,2.4,1.8,5.1,1.2,7.5"/>
		<path fill="none" stroke="#333333" stroke-width="2" stroke-linecap="round" stroke-miterlimit="10" d="M308.4,328.5
			c3.3,0.7,6.5,2.9,8.5,6.2c1.9,3.2,2.5,6.7,1.9,9.9"/>
	</g>
	<g opacity="0.22">
		<image overflow="visible" width="118" height="117" xlink:href="57195A336B2CF0D5.png"  transform="matrix(1 0 0 1 226.825 219)">
		</image>
	</g>
	<linearGradient id="SVGID_43_" gradientUnits="userSpaceOnUse" x1="244.414" y1="224.1111" x2="281.5127" y2="288.368">
		<stop  offset="6.094714e-02" style="stop-color:#1E80B8"/>
		<stop  offset="0.8652" style="stop-color:#00759F"/>
		<stop  offset="0.9944" style="stop-color:#005B80"/>
	</linearGradient>
	<path fill="url(#SVGID_43_)" d="M291.9,250.8c0-17.5-14.2-31-31.7-31c-17.5,0-31.7,14.5-31.7,32c0,6.2,1.8,12.2,4.8,17
		c0,0,20.4,30.8,27.5,30.9s26.1-32.4,26.1-32.4c1.8-2.6,3.3-6.2,4.1-9.3C291.7,255.8,291.9,253.2,291.9,250.8z"/>
	<linearGradient id="SVGID_44_" gradientUnits="userSpaceOnUse" x1="253.8811" y1="240.2377" x2="266.9706" y2="262.9095">
		<stop  offset="6.094714e-02" style="stop-color:#1E80B8"/>
		<stop  offset="0.8652" style="stop-color:#00759F"/>
		<stop  offset="0.9944" style="stop-color:#005B80"/>
	</linearGradient>
	<path fill="#FFFFFF" stroke="url(#SVGID_44_)" stroke-miterlimit="10" d="M272.7,248.7c2,9.2-6,17.2-15.1,15.1
		c-4.6-1-8.4-4.8-9.4-9.4c-2-9.2,6-17.2,15.1-15.1C267.9,240.3,271.7,244.1,272.7,248.7z"/>
	<g id="Pin">
		<linearGradient id="SVGID_45_" gradientUnits="userSpaceOnUse" x1="417.6872" y1="390.7296" x2="417.0622" y2="400.7296">
			<stop  offset="0.5023" style="stop-color:#666666"/>
			<stop  offset="1" style="stop-color:#C7C7C7"/>
		</linearGradient>
		<linearGradient id="SVGID_46_" gradientUnits="userSpaceOnUse" x1="411.8161" y1="395.9421" x2="423.2392" y2="395.9421">
			<stop  offset="0" style="stop-color:#C7C7C7"/>
			<stop  offset="0.8584" style="stop-color:#666666"/>
		</linearGradient>
		<path fill="url(#SVGID_45_)" stroke="url(#SVGID_46_)" stroke-miterlimit="10" d="M414.8,392.4l-2.5,4.1c0,0-0.2,1.5,1.2,2.3
			c1.4,0.8,3.3,0.8,4.9,0c1.7-0.8,4-4.3,4-4.3L414.8,392.4z"/>
		<g opacity="0.22">
			
				<image overflow="visible" width="135" height="113" xlink:href="57195A336B2CF0D6.png"  transform="matrix(1 0 0 1 384.825 322)">
			</image>
		</g>
		
			<radialGradient id="SVGID_47_" cx="427.2449" cy="381.4544" r="17.4485" gradientTransform="matrix(-0.7071 -0.7071 1.4142 -1.4142 189.8947 1223.0201)" gradientUnits="userSpaceOnUse">
			<stop  offset="0.3839" style="stop-color:#B41B12"/>
			<stop  offset="1" style="stop-color:#DB3C37"/>
		</radialGradient>
		<linearGradient id="SVGID_48_" gradientUnits="userSpaceOnUse" x1="411.2291" y1="390.7527" x2="443.0282" y2="372.3935">
			<stop  offset="0" style="stop-color:#DB3C37"/>
			<stop  offset="0.9959" style="stop-color:#B41B12"/>
		</linearGradient>
		<path fill="url(#SVGID_47_)" stroke="url(#SVGID_48_)" stroke-width="2" stroke-miterlimit="10" d="M409.2,378.7
			c-0.5,7.1,3.1,18.8,18.9,19.5c16.1,0.7,17.1-13.5,17.1-13.5s1.5-16.8-16.4-19.8c-17.9-3-19.6,14-19.6,14"/>
		<linearGradient id="SVGID_49_" gradientUnits="userSpaceOnUse" x1="441.186" y1="386.5212" x2="422.061" y2="379.7712">
			<stop  offset="0.52" style="stop-color:#B41B12"/>
			<stop  offset="1" style="stop-color:#DB3C37"/>
		</linearGradient>
		<radialGradient id="SVGID_50_" cx="427.2449" cy="381.4544" r="18.4479" gradientUnits="userSpaceOnUse">
			<stop  offset="0" style="stop-color:#DB3C37"/>
			<stop  offset="0.9959" style="stop-color:#FFFFFF"/>
		</radialGradient>
		<path opacity="0.63" fill="url(#SVGID_49_)" stroke="url(#SVGID_50_)" stroke-width="2" stroke-miterlimit="10" d="M409.2,378.7
			c-0.5,7.1,3.1,18.8,18.9,19.5c16.1,0.7,17.1-13.5,17.1-13.5s1.5-16.8-16.4-19.8c-17.9-3-19.6,14-19.6,14"/>
		
			<radialGradient id="SVGID_51_" cx="436.7" cy="387.3783" r="24.0323" fx="429.7333" fy="376.2595" gradientUnits="userSpaceOnUse">
			<stop  offset="0.6598" style="stop-color:#DB3C37"/>
			<stop  offset="1" style="stop-color:#ED7C80"/>
		</radialGradient>
		<path fill="url(#SVGID_51_)" d="M436.8,343.4c0,0-5.5,2.7-6,8.5c-0.5,6.6,1.9,9.2,1.9,9.2l-9.6,11.7c0,0-2.3,5.5,0.7,9.2
			c4.2,5.2,10.6,3.9,11.6,2.8c1-1.1,10.1-14.1,10.1-14.1l6,0.1l3.9-0.8L436.8,343.4z"/>
		<linearGradient id="SVGID_52_" gradientUnits="userSpaceOnUse" x1="431.6196" y1="356.5845" x2="460.8245" y2="356.5845">
			<stop  offset="0" style="stop-color:#ED7C80"/>
			<stop  offset="0.4709" style="stop-color:#DB3C37"/>
		</linearGradient>
		<path fill="url(#SVGID_52_)" d="M455.1,348c6.3,6.6,7.6,15.7,2.8,20.3c-4.8,4.7-14.1,3.2-20.5-3.4s-8-16.5-2.6-20.5
			c0.9-0.7,1.9-1.3,3-1.7C442.1,340.9,450.5,343.2,455.1,348z"/>
		<path fill="#DB3C37" d="M433.7,345.5c0,0-6.5,8.4,2,17.6c10.3,11,21.6,5.7,21.6,5.7s-10,9.2-23.1-5.3
			C425.7,354,433.7,345.5,433.7,345.5z"/>
	</g>
	<g>
		<g opacity="0.19">
			
				<image overflow="visible" width="135" height="151" xlink:href="57195A336B2CF0D4.png"  transform="matrix(1 0 0 1 332.825 250)">
			</image>
		</g>
		<path fill="#444444" d="M353.4,220.2l42.4,14.5c0,0,5.8,1.9,5.8,10.4c-0.1,8.5-0.9,115-0.9,115s-0.5,6-6.6,4.4
			s-40.7-13.6-40.7-13.6s-5.8-4.1-5.9-9s0-117,0-117s1.6-5.4,4.9-4.7"/>
		<linearGradient id="SVGID_53_" gradientUnits="userSpaceOnUse" x1="348.0195" y1="289.6015" x2="402.0894" y2="289.6015">
			<stop  offset="0" style="stop-color:#666666"/>
			<stop  offset="0.956" style="stop-color:#C7C7C7"/>
		</linearGradient>
		<path fill="none" stroke="url(#SVGID_53_)" stroke-miterlimit="10" d="M401.2,359.6c0,0,0.9-110.4,0-117.1s-5.4-7.8-5.4-7.8
			s-40-14.2-42.9-14.6s-4.5,2.4-4.5,2.4"/>
		
			<ellipse transform="matrix(0.9461 -0.3238 0.3238 0.9461 -56.8576 134.4867)" fill="#868883" cx="375.8" cy="238.1" rx="1.2" ry="1.4"/>
		
			<ellipse transform="matrix(0.9461 -0.3238 0.3238 0.9461 -56.7493 133.1378)" fill="#868883" cx="371.8" cy="237.1" rx="1.2" ry="1.4"/>
		
			<ellipse transform="matrix(0.9461 -0.3238 0.3238 0.9461 -56.641 131.7889)" fill="#868883" cx="367.8" cy="236.1" rx="1.2" ry="1.4"/>
		<polygon fill="#E1E1E1" points="349.8,242.9 349.8,328.9 396.8,345 396.8,259.9 		"/>
		<path fill="#6FC9EA" d="M359.6,314l23.7,7.9c0,0,2.9,0.7,2.1,5.1c-0.6,3.1-5.8,1.9-5.8,1.9l-20.8-6.8c0,0-2.8-1.2-2-5.4
			C357.4,314.1,359.6,314,359.6,314z"/>
		<path fill="#1690C3" d="M351.8,287.6c0.5,0.2,43,15,43,15v7.3l-43-15.3V287.6z"/>
		<path fill="#1690C3" d="M351.8,295.6c0.5,0.2,43,15,43,15v7.3l-43-15.3V295.6z"/>
		<line fill="#E1E1E1" stroke="#333333" stroke-miterlimit="10" x1="355" y1="292.4" x2="367" y2="296.6"/>
		<line fill="#E1E1E1" stroke="#FFFFFF" stroke-miterlimit="10" x1="370.3" y1="297.4" x2="393.7" y2="305.5"/>
		<line fill="#E1E1E1" stroke="#333333" stroke-miterlimit="10" x1="355" y1="300.4" x2="367" y2="304.6"/>
		<line fill="#E1E1E1" stroke="#FFFFFF" stroke-miterlimit="10" x1="374.2" y1="306.8" x2="389.8" y2="312.2"/>
		<polygon fill="#1690C3" points="349.8,247.5 396.8,265.2 396.8,259.9 349.8,242.9 		"/>
		<polyline fill="#1690C3" points="366.8,262.9 376.8,266.2 376.8,277.7 366.8,274.2 366.8,263 		"/>
		
			<ellipse transform="matrix(0.8262 0.5634 -0.5634 0.8262 258.7801 -148.2173)" fill="#949494" stroke="#666666" stroke-width="2" stroke-miterlimit="10" cx="369.6" cy="345.3" rx="4.8" ry="3.7"/>
	</g>
	<g id="Camembert">
		<linearGradient id="SVGID_55_" gradientUnits="userSpaceOnUse" x1="705.825" y1="286.1483" x2="746.825" y2="286.1483">
			<stop  offset="0" style="stop-color:#BF8C1F"/>
			<stop  offset="1" style="stop-color:#DC9733"/>
		</linearGradient>
		<polygon fill="url(#SVGID_55_)" points="705.8,242.9 705.8,285.9 746.8,329.4 746.8,284.9 		"/>
		<linearGradient id="SVGID_56_" gradientUnits="userSpaceOnUse" x1="746.825" y1="295.815" x2="842.9916" y2="295.815">
			<stop  offset="0" style="stop-color:#BF8C1F"/>
			<stop  offset="0.5661" style="stop-color:#C89021"/>
		</linearGradient>
		<polygon fill="url(#SVGID_56_)" points="746.8,284.9 746.8,328.9 843,306.1 841.8,262.7 		"/>
		<g>
			<linearGradient id="SVGID_57_" gradientUnits="userSpaceOnUse" x1="707.2517" y1="268.0062" x2="840.1956" y2="239.3372">
				<stop  offset="0" style="stop-color:#FFC24A"/>
				<stop  offset="1" style="stop-color:#F9B760"/>
			</linearGradient>
			<path fill="url(#SVGID_57_)" d="M705.8,242.9l41,42l95-22.2c0,0-14.7-16.8-57.3-22.7C741.8,234.2,705.8,242.9,705.8,242.9z"/>
		</g>
		<g>
			<linearGradient id="SVGID_58_" gradientUnits="userSpaceOnUse" x1="711.0529" y1="378.7342" x2="785.7026" y2="334.2175">
				<stop  offset="0" style="stop-color:#4D4D4D"/>
				<stop  offset="0.5661" style="stop-color:#FFFFFF"/>
			</linearGradient>
			<polygon fill="url(#SVGID_58_)" points="724.8,391 778.1,364.9 727.3,342.9 716.1,363.6 			"/>
			<linearGradient id="SVGID_59_" gradientUnits="userSpaceOnUse" x1="640.0588" y1="354.7577" x2="724.8915" y2="354.7577">
				<stop  offset="0.3993" style="stop-color:#A42D12"/>
				<stop  offset="0.8765" style="stop-color:#A32C17"/>
			</linearGradient>
			<path fill="url(#SVGID_59_)" d="M640.1,318.5l0.1,28.4c0,0,4.6,19.4,31.2,30.8s53.4,13.4,53.4,13.4l0.1-23.3
				c0,0-51.2-19.3-50.7-18.8S640.1,318.5,640.1,318.5z"/>
			<linearGradient id="SVGID_60_" gradientUnits="userSpaceOnUse" x1="685.6519" y1="363.0728" x2="701.5377" y2="272.9805">
				<stop  offset="0.3993" style="stop-color:#DD5C51"/>
				<stop  offset="0.8765" style="stop-color:#C34F4F"/>
			</linearGradient>
			<path fill="url(#SVGID_60_)" d="M725.1,367.6c-52.4,0.6-85.9-28-85-48.8c0.7-17.9,28.9-39.4,65.2-45.2l42.4,41.1L725.1,367.6z"/>
			<polyline fill="#742907" points="746.1,344 724.8,391 724.8,367.9 747.7,314.8 			"/>
		</g>
		<linearGradient id="SVGID_61_" gradientUnits="userSpaceOnUse" x1="799.601" y1="341.6472" x2="946.0541" y2="254.3112">
			<stop  offset="0" style="stop-color:#C7C7C7"/>
			<stop  offset="0.5661" style="stop-color:#F9F9F9"/>
		</linearGradient>
		<polygon fill="url(#SVGID_61_)" points="835.3,378.9 942.8,317.4 837.5,257.9 		"/>
		<linearGradient id="SVGID_62_" gradientUnits="userSpaceOnUse" x1="735.9207" y1="348.2117" x2="864.6375" y2="348.2117">
			<stop  offset="0" style="stop-color:#627642"/>
			<stop  offset="1" style="stop-color:#445A37"/>
		</linearGradient>
		<path fill="url(#SVGID_62_)" d="M864.4,299.9l0.2,48.4c-14,35.5-67,44.8-80.4,46c-18.8,1.7-48.3,2.2-48.3,2.2l0.6-47.4"/>
		<linearGradient id="SVGID_63_" gradientUnits="userSpaceOnUse" x1="799.73" y1="390.2614" x2="801.2379" y2="262.157">
			<stop  offset="0.4553" style="stop-color:#88A14F"/>
			<stop  offset="1" style="stop-color:#55804D"/>
		</linearGradient>
		<path fill="url(#SVGID_63_)" d="M852.8,276.9c17.4,18.6,17.6,35.1-15.6,56.5s-100.6,15.8-100.6,15.8l20.8-51.1L852.8,276.9z"/>
	</g>
	<g>
		<g>
			<g>
				<g enable-background="new    ">
					<defs>
						<polygon id="SVGID_95_" enable-background="new    " points="724.4,212 717,57.3 880,96.7 887.3,251.3 						"/>
					</defs>
					<clipPath id="SVGID_64_">
						<use xlink:href="#SVGID_95_"  overflow="visible"/>
					</clipPath>
					<g clip-path="url(#SVGID_64_)">
						<g>
							<g>
								<g>
									<g>
										<defs>
											<polyline id="SVGID_97_" points="723.2,187.1 719.9,58 881.1,121.5 884.4,250.6 723.2,187.1 											"/>
										</defs>
										<clipPath id="SVGID_65_">
											<use xlink:href="#SVGID_97_"  overflow="visible"/>
										</clipPath>
										<path clip-path="url(#SVGID_65_)" fill="#29A6DD" d="M810.7,94.3c-24.8-6-29.3,17-29.3,17s-2.5-1.6-6.1-3
											c-1.4-0.6-3-1.1-4.7-1.5c-4.5-1.1-9.6-1.3-13.7,1.5c-9.5,6.5-7.6,25.8-7.6,25.8s-27.5-3.9-26.9,19.5
											c0.7,23.4,22.5,41.6,22.5,41.6l109,43.4c0,0,0.1,0,0.3,0.1l0.6,0.2c0.8,0.3,2,0.7,3.5,1.1c8.4,2,25.9,2.6,25.2-27.9l0-0.3
											c-1.1-40.4-27.9-54.3-28.5-54.7c-0.7-0.4-3.8-46.2-35.9-60c-0.4-0.2-0.8-0.3-1.1-0.5l-0.7-0.3
											C814.8,95.4,812.7,94.7,810.7,94.3"/>
									</g>
								</g>
							</g>
						</g>
					</g>
				</g>
			</g>
		</g>
		<g>
			<g>
				<g enable-background="new    ">
					<defs>
						<polygon id="SVGID_99_" enable-background="new    " points="772.1,190.1 773.3,142 792.4,144.6 791.2,192.6 						"/>
					</defs>
					<clipPath id="SVGID_66_">
						<use xlink:href="#SVGID_99_"  overflow="visible"/>
					</clipPath>
					<g clip-path="url(#SVGID_66_)">
						<g>
							<g>
								<g>
									<path fill="#FFFFFF" d="M789.7,144.2c-0.2,0-0.4,0-0.7,0c-4.5,0.7-8.6,3.3-11.5,7.2c-2.9,3.9-4.7,9.1-4.9,15
										c-0.1,5.3,1.1,10.5,3.3,14.9c2.2,4.4,5.5,8,9.3,10.3c0.3,0.2,0.7,0.3,1,0.4c1.1,0.2,2.2-0.6,2.7-1.9
										c0.6-1.7-0.1-3.8-1.5-4.7c-2.8-1.7-5.1-4.3-6.7-7.5c-1.6-3.2-2.5-6.9-2.4-10.8c0.1-4.3,1.4-8,3.5-10.8
										c2.1-2.8,5-4.7,8.3-5.2c1.5-0.2,2.5-2,2.2-3.9C792.1,145.6,791,144.4,789.7,144.2"/>
								</g>
							</g>
						</g>
					</g>
				</g>
			</g>
		</g>
		<g>
			<g>
				<g enable-background="new    ">
					<defs>
						<polygon id="SVGID_101_" enable-background="new    " points="803.3,190.3 804.5,143.8 821.6,146.1 820.4,192.6 						"/>
					</defs>
					<clipPath id="SVGID_67_">
						<use xlink:href="#SVGID_101_"  overflow="visible"/>
					</clipPath>
					<g clip-path="url(#SVGID_67_)">
						<g>
							<g>
								<g>
									<path fill="#FFFFFF" d="M808.9,144.4c-1-0.1-2.1,0.4-2.6,1.6c-0.7,1.6-0.2,3.8,1.2,4.8c2.4,1.8,4.4,4.4,5.8,7.4
										c1.4,3,2.1,6.4,2,10c0,0.5-0.1,1.1-0.3,1.9c-0.4,1.3-1.1,2.9-2,4.5c-1.4,2.4-3.2,4.7-4.8,6.5c-0.8,0.9-1.6,1.6-2.2,2.1
										c-0.3,0.2-0.6,0.4-0.7,0.5c-0.1,0.1-0.2,0.1-0.2,0.1l0,0l0,0c-1.5,0.5-2.2,2.3-1.8,4.2c0.4,1.5,1.4,2.5,2.6,2.6
										c0.3,0,0.6,0,1-0.1c0.4-0.1,0.7-0.3,1-0.5c0.6-0.3,1.1-0.8,1.7-1.3c1.1-0.9,2.2-2.1,3.4-3.5c1.8-2.1,3.6-4.6,5.1-7.4
										c0.7-1.4,1.4-2.8,1.9-4.3c0.5-1.5,0.8-3.1,0.9-4.7c0.1-4.9-0.9-9.7-2.8-13.8c-1.9-4.1-4.7-7.7-8-10.2
										C809.8,144.6,809.3,144.4,808.9,144.4"/>
								</g>
							</g>
						</g>
					</g>
				</g>
			</g>
		</g>
		<g>
			<g>
				<g enable-background="new    ">
					<defs>
						<polygon id="SVGID_103_" enable-background="new    " points="798.4,154.4 798.7,140 813.3,142 812.9,156.4 						"/>
					</defs>
					<clipPath id="SVGID_68_">
						<use xlink:href="#SVGID_103_"  overflow="visible"/>
					</clipPath>
					<g clip-path="url(#SVGID_68_)">
						<g>
							<g>
								<g>
									<polyline fill="#FFFFFF" points="813.3,142 806,141 798.7,140 801.7,146.8 805.6,155.4 809.5,148.5 813.3,142 									"/>
								</g>
							</g>
						</g>
					</g>
				</g>
			</g>
		</g>
		<g>
			<g>
				<g enable-background="new    ">
					<defs>
						<polygon id="SVGID_105_" enable-background="new    " points="783,195.3 783.5,179.7 798,181.7 797.6,197.3 						"/>
					</defs>
					<clipPath id="SVGID_69_">
						<use xlink:href="#SVGID_105_"  overflow="visible"/>
					</clipPath>
					<g clip-path="url(#SVGID_69_)">
						<g>
							<g>
								<g>
									<polyline fill="#FFFFFF" points="790.3,180.6 786.7,188 783,195.3 788.7,195.8 797.6,196.8 793.9,188.7 790.3,180.6 
																			"/>
								</g>
							</g>
						</g>
					</g>
				</g>
			</g>
		</g>
	</g>
	<polygon fill="#FFFFFF" points="576.3,378 589.3,370.6 589,378 	"/>
	<polygon fill="#F9F9F9" points="148.6,322.1 207.3,290.9 191.3,285.8 146.1,316.8 	"/>
	<polygon fill="#FFFFFF" points="144.8,317 158.8,317 146.7,323 	"/>
</g>
<g id="_x2F_Maps">
</g>
<g id="_x2F_Contact">
	<g id="Header_copy_2">
		<g id="Logo_copy_3">
			<g id="footer_copy_2">
				<g id="Layer_28_copy_2" display="none">
				</g>
			</g>
			<g id="Logo_Icon_copy_4">
			</g>
		</g>
		<g id="Menu_copy_3">
			<g id="Login_copy_7">
			</g>
		</g>
	</g>
	<g id="footer_copy_3">
		<g id="Layer_28_copy_3">
		</g>
	</g>
</g>
<g id="_x2F_Pricing">
	<g id="footer_copy">
		<g id="Layer_28_copy">
		</g>
	</g>
	<g id="Header_copy">
		<g id="Logo_copy_2">
			<g id="Logo_Icon_copy_3">
			</g>
		</g>
		<g id="Menu_copy_2">
			<g id="Login_copy_5">
			</g>
		</g>
	</g>
	<g id="Plans">
		<g id="Layer_58">
		</g>
	</g>
</g>
<g id="Icons">
	<g id="Logo_1_">
		<g id="Logo_Icon">
		</g>
	</g>
	<g id="Makers">
		<g id="Layer_20">
		</g>
	</g>
</g>
<g id="Legend">
	<g id="Logo_2_">
	</g>
	<g id="Menu">
	</g>
</g>
<g id="Helpers_1_" display="none">
</g>
<g id="Layer_30">
</g>
<g id="Grid" display="none">
</g>
<g id="Time_Icon">
</g>
<g id="Word_Cloud">
</g>
<g id="Excel_icon">
	<g id="Icon">
	</g>
</g>
<g id="Iphone">
	<g id="Plateforms">
		<g id="Apple_icon">
		</g>
		<g id="Windows_mobile_icon">
		</g>
		<g id="Android_icon">
		</g>
	</g>
	<g id="screen">
	</g>
</g>
</svg>
