<?xml version="1.0" encoding="utf-8"?>
<!-- Generator: Adobe Illustrator 18.1.0, SVG Export Plug-In . SVG Version: 6.00 Build 0)  -->
<svg version="1.1" xmlns="http://www.w3.org/2000/svg" xmlns:xlink="http://www.w3.org/1999/xlink" x="0px" y="0px"
	 viewBox="0 0 110.7 60" enable-background="new 0 0 110.7 60" xml:space="preserve">
<g id="_x2F_">
	<g id="footer">
		<g id="Layer_28">
		</g>
	</g>
	<g id="Main_centered">
		<g id="Blue_marker">
		</g>
		<g id="Blue_marker_copy">
		</g>
		<g id="Blue_marker_copy_2">
		</g>
		<g id="Blue_marker_copy_3">
		</g>
		<g id="Blue_marker_copy_4">
		</g>
		<g id="Blue_marker_copy_5">
		</g>
		<g id="Blue_marker_copy_6">
		</g>
	</g>
	<g id="Main_right">
		<g id="Login_copy">
		</g>
	</g>
	<g id="Header">
		<g id="Logo">
			<g id="Logo_Icon_copy">
			</g>
		</g>
		<g id="Menu_1_">
			<g id="Login">
			</g>
		</g>
	</g>
</g>
<g id="_x2F_Test">
	<g id="LinkedIn">
	</g>
	<path fill="#ADADAD" d="M26.7,6.1C15.8,6.1,7,15.1,7,26c0,3.9,1.1,7.6,3,10.6c0,0,12.7,19.2,17.1,19.2s16.3-20.2,16.3-20.2
		c1.1-1.6,2.1-3.8,2.6-5.8c0.4-1.4,0.5-3.1,0.5-4.6C46.4,14.4,37.6,6.1,26.7,6.1z M25,33.5c-2.9-0.6-5.2-3-5.8-5.8
		c-1.3-5.7,3.7-10.7,9.4-9.4c2.9,0.6,5.2,3,5.8,5.8C35.7,29.8,30.7,34.7,25,33.5z"/>
</g>
<g id="_x2F_Maps">
</g>
<g id="_x2F_Contact">
	<g id="Header_copy_2">
		<g id="Logo_copy_3">
			<g id="footer_copy_2">
				<g id="Layer_28_copy_2" display="none">
				</g>
			</g>
			<g id="Logo_Icon_copy_4">
			</g>
		</g>
		<g id="Menu_copy_3">
			<g id="Login_copy_7">
			</g>
		</g>
	</g>
	<g id="footer_copy_3">
		<g id="Layer_28_copy_3">
		</g>
	</g>
</g>
<g id="_x2F_Pricing">
	<g id="footer_copy">
		<g id="Layer_28_copy">
		</g>
	</g>
	<g id="Header_copy">
		<g id="Logo_copy_2">
			<g id="Logo_Icon_copy_3">
			</g>
		</g>
		<g id="Menu_copy_2">
			<g id="Login_copy_5">
			</g>
		</g>
	</g>
	<g id="Plans">
		<g id="Layer_58">
		</g>
	</g>
</g>
<g id="Icons">
	<g id="Logo_1_">
		<g id="Logo_Icon">
		</g>
	</g>
	<g id="Makers">
		<g id="Layer_20">
		</g>
	</g>
</g>
<g id="Legend">
	<g id="Logo_2_">
	</g>
	<g id="Menu">
	</g>
</g>
<g id="Helpers_1_" display="none">
</g>
<g id="Layer_30">
</g>
<g id="Grid" display="none">
</g>
<g id="Time_Icon">
	<circle fill="none" stroke="#ADADAD" stroke-width="5" stroke-miterlimit="10" cx="79.3" cy="31.3" r="19.7"/>
	<polyline fill="none" stroke="#ADADAD" stroke-width="5" stroke-linecap="round" stroke-miterlimit="10" points="86.3,40.3 
		78.2,32 78.2,18.3 	"/>
</g>
<g id="Word_Cloud">
</g>
<g id="Excel_icon">
	<g id="Icon">
	</g>
</g>
<g id="Iphone">
	<g id="Plateforms">
		<g id="Apple_icon">
		</g>
		<g id="Windows_mobile_icon">
		</g>
		<g id="Android_icon">
		</g>
	</g>
	<g id="screen">
	</g>
</g>
</svg>
