<?xml version="1.0" encoding="utf-8"?>
<!-- Generator: Adobe Illustrator 18.1.0, SVG Export Plug-In . SVG Version: 6.00 Build 0)  -->
<svg version="1.1" xmlns="http://www.w3.org/2000/svg" xmlns:xlink="http://www.w3.org/1999/xlink" x="0px" y="0px"
	 viewBox="0 0 447 266.1" enable-background="new 0 0 447 266.1" xml:space="preserve">
<g id="_x2F_">
	<g id="footer">
		<g id="Layer_28">
		</g>
	</g>
	<g id="Main_centered">
		<g id="Blue_marker">
		</g>
		<g id="Blue_marker_copy">
		</g>
		<g id="Blue_marker_copy_2">
		</g>
		<g id="Blue_marker_copy_3">
		</g>
		<g id="Blue_marker_copy_4">
		</g>
		<g id="Blue_marker_copy_5">
		</g>
		<g id="Blue_marker_copy_6">
		</g>
	</g>
	<g id="Main_right">
		<g id="Login_copy">
		</g>
	</g>
	<g id="Header">
		<g id="Logo">
			<g id="Logo_Icon_copy">
			</g>
		</g>
		<g id="Menu_1_">
			<g id="Login">
			</g>
		</g>
	</g>
</g>
<g id="_x2F_Test">
	<g id="LinkedIn">
	</g>
	<rect x="-222" y="-135.3" fill="#F9F9F9" width="1280" height="551.6"/>
</g>
<g id="_x2F_Maps">
</g>
<g id="_x2F_Contact">
	<g id="Header_copy_2">
		<g id="Logo_copy_3">
			<g id="footer_copy_2">
				<g id="Layer_28_copy_2" display="none">
				</g>
			</g>
			<g id="Logo_Icon_copy_4">
			</g>
		</g>
		<g id="Menu_copy_3">
			<g id="Login_copy_7">
			</g>
		</g>
	</g>
	<g id="footer_copy_3">
		<g id="Layer_28_copy_3">
		</g>
	</g>
</g>
<g id="_x2F_Pricing">
	<g id="footer_copy">
		<g id="Layer_28_copy">
		</g>
	</g>
	<g id="Header_copy">
		<g id="Logo_copy_2">
			<g id="Logo_Icon_copy_3">
			</g>
		</g>
		<g id="Menu_copy_2">
			<g id="Login_copy_5">
			</g>
		</g>
	</g>
	<g id="Plans">
		<g id="Layer_58">
		</g>
	</g>
</g>
<g id="Icons">
	<g id="Logo_1_">
		<g id="Logo_Icon">
		</g>
	</g>
	<g id="Makers">
		<g id="Layer_20">
		</g>
	</g>
</g>
<g id="Legend">
	<g id="Logo_2_">
	</g>
	<g id="Menu">
	</g>
</g>
<g id="Helpers_1_" display="none">
</g>
<g id="Layer_30">
</g>
<g id="Grid" display="none">
</g>
<g id="Time_Icon">
</g>
<g id="Word_Cloud">
</g>
<g id="Excel_icon">
	<g id="Icon">
		<g>
			<rect x="174.5" y="148.5" fill="#008045" stroke="#808080" stroke-miterlimit="10" width="33" height="21"/>
			<rect x="174.5" y="173.5" fill="#008045" stroke="#808080" stroke-miterlimit="10" width="33" height="21"/>
			<path fill="#008045" stroke="#808080" stroke-miterlimit="10" d="M66.2,157.5l8.4-21.3l11.9,25.3H99l-15.4-35l15.4-36H85.3
				l-9.5,22.8l-7.8-22.9c0,0-12.3,0.3-13.6,0.3l15,33.6l-15.9,33.2H66.2z"/>
			<rect x="174.5" y="123.5" fill="#008045" stroke="#808080" stroke-miterlimit="10" width="33" height="17"/>
			<rect x="174.5" y="69.5" fill="#008045" stroke="#808080" stroke-miterlimit="10" width="33" height="21"/>
			<rect x="174.5" y="94.5" fill="#008045" stroke="#808080" stroke-miterlimit="10" width="33" height="21"/>
			<path fill="#008045" stroke="#808080" stroke-miterlimit="10" d="M240.5,17.4c0-8.3-6.7-14.9-14.9-14.9H18.4
				c-8.3,0-14.9,6.7-14.9,14.9v224.1c0,8.3,6.7,14.9,14.9,14.9h207.1c8.3,0,14.9-6.7,14.9-14.9V17.4z M136.5,222.3l-117-19.5V52.4
				c5,0,117-18.9,117-18.9V222.3z M219.5,200.5c0,1.9-1.7,2-3.6,2H139c0,0,1.5,1.2,1.5,1.1v-9.1h25v-21h-25v-4h25v-21h-25v-8h25v-17
				h-25v-8h25v-21h-25v-4h25v-21h-25v-12h75.4c1.9,0,3.6,1.3,3.6,3.2V200.5z"/>
		</g>
		<path fill="#008045" stroke="#808080" stroke-miterlimit="10" d="M434.2,166.2H270.8c-1.8,0-3.3-1.5-3.3-3.3v-61.9
			c0-1.8,1.5-3.3,3.3-3.3h163.5c1.8,0,3.3,1.5,3.3,3.3v61.9C437.6,164.8,436.1,166.2,434.2,166.2z"/>
		<text transform="matrix(1 0 0 1 293.1301 155.6667)" fill="#FFFFFF" font-family="'HelveticaNeue'" font-size="62.3981">CSV</text>
	</g>
</g>
<g id="Iphone">
	<g id="Plateforms">
		<g id="Apple_icon">
		</g>
		<g id="Windows_mobile_icon">
		</g>
		<g id="Android_icon">
		</g>
	</g>
	<g id="screen">
	</g>
</g>
</svg>
