<?xml version="1.0" encoding="utf-8"?>
<!-- Generator: Adobe Illustrator 18.1.0, SVG Export Plug-In . SVG Version: 6.00 Build 0)  -->
<svg version="1.1" xmlns="http://www.w3.org/2000/svg" xmlns:xlink="http://www.w3.org/1999/xlink" x="0px" y="0px"
	 viewBox="0 0 319 622" enable-background="new 0 0 319 622" xml:space="preserve">
<g id="_x2F_">
	<g id="footer">
		<g id="Layer_28">
		</g>
	</g>
	<g id="Chrome_Main" display="none">
		<defs>
			<rect id="SVGID_1_" x="-292" y="-905" width="1251" height="1004"/>
		</defs>
		<clipPath id="SVGID_2_" display="inline">
			<use xlink:href="#SVGID_1_"  overflow="visible"/>
		</clipPath>
		<g display="inline" clip-path="url(#SVGID_2_)">
			
				<image overflow="visible" width="1251" height="1023" xlink:href="../Documents/teknimotion/Products/tradeMapp - Media builds/Raw Media Material/Chrome Main.png"  transform="matrix(1 0 0 1 -292 -924)">
			</image>
		</g>
	</g>
	<g id="Main_centered">
		<g id="Blue_marker">
		</g>
		<g id="Blue_marker_copy">
		</g>
		<g id="Blue_marker_copy_2">
		</g>
		<g id="Blue_marker_copy_3">
		</g>
		<g id="Blue_marker_copy_4">
		</g>
		<g id="Blue_marker_copy_5">
		</g>
		<g id="Blue_marker_copy_6">
		</g>
	</g>
	<g id="Main_right">
		<g id="Login_copy">
		</g>
	</g>
	<g id="Header">
		<g id="Logo">
			<g id="Logo_Icon_copy">
			</g>
		</g>
		<g id="Menu_1_">
			<g id="Login">
			</g>
		</g>
	</g>
</g>
<g id="_x2F_Test">
	<g id="LinkedIn">
	</g>
</g>
<g id="_x2F_Maps">
</g>
<g id="_x2F_Contact">
	<g id="Header_copy_2">
		<g id="Logo_copy_3">
			<g id="footer_copy_2">
				<g id="Layer_28_copy_2" display="none">
				</g>
			</g>
			<g id="Logo_Icon_copy_4">
			</g>
		</g>
		<g id="Menu_copy_3">
			<g id="Login_copy_7">
			</g>
		</g>
	</g>
	<g id="footer_copy_3">
		<g id="Layer_28_copy_3">
		</g>
	</g>
</g>
<g id="_x2F_Pricing">
	<g id="footer_copy">
		<g id="Layer_28_copy">
		</g>
	</g>
	<g id="Header_copy">
		<g id="Logo_copy_2">
			<g id="Logo_Icon_copy_3">
			</g>
		</g>
		<g id="Menu_copy_2">
			<g id="Login_copy_5">
			</g>
		</g>
	</g>
	<g id="Plans">
		<g id="Layer_58">
		</g>
	</g>
</g>
<g id="Icons">
	<g id="Logo_1_">
		<g id="Logo_Icon">
		</g>
	</g>
	<g id="Makers">
		<g id="Layer_20">
		</g>
	</g>
</g>
<g id="Legend">
	<g id="Logo_2_">
	</g>
	<g id="Menu">
	</g>
</g>
<g id="Helpers_1_" display="none">
</g>
<g id="Layer_30">
</g>
<g id="Grid" display="none">
</g>
<g id="Time_Icon">
</g>
<g id="Word_Cloud">
</g>
<g id="Excel_icon">
	<g id="Icon">
	</g>
</g>
<g id="Iphone">
	<g id="Phone_2_">
		<g>
			<linearGradient id="SVGID_4_" gradientUnits="userSpaceOnUse" x1="305.5" y1="158" x2="305.5" y2="158">
				<stop  offset="0" style="stop-color:#FFFFFF"/>
				<stop  offset="1" style="stop-color:#000000"/>
			</linearGradient>
			<linearGradient id="SVGID_5_" gradientUnits="userSpaceOnUse" x1="305.5" y1="178" x2="305.5" y2="138">
				<stop  offset="0" style="stop-color:#4D4D4D"/>
				<stop  offset="0.4569" style="stop-color:#B3B3B3"/>
				<stop  offset="0.9463" style="stop-color:#666666"/>
			</linearGradient>
			<line fill="url(#SVGID_4_)" stroke="url(#SVGID_5_)" stroke-miterlimit="10" x1="305.5" y1="138" x2="305.5" y2="178"/>
			<linearGradient id="SVGID_6_" gradientUnits="userSpaceOnUse" x1="306.5" y1="158" x2="306.5" y2="158">
				<stop  offset="0" style="stop-color:#FFFFFF"/>
				<stop  offset="1" style="stop-color:#000000"/>
			</linearGradient>
			<linearGradient id="SVGID_7_" gradientUnits="userSpaceOnUse" x1="306.5" y1="178" x2="306.5" y2="138">
				<stop  offset="0" style="stop-color:#4D4D4D"/>
				<stop  offset="1.236429e-02" style="stop-color:#646464"/>
				<stop  offset="3.551606e-02" style="stop-color:#888888"/>
				<stop  offset="6.158365e-02" style="stop-color:#A8A8A8"/>
				<stop  offset="9.042222e-02" style="stop-color:#C4C4C4"/>
				<stop  offset="0.123" style="stop-color:#DADADA"/>
				<stop  offset="0.161" style="stop-color:#EBEBEB"/>
				<stop  offset="0.208" style="stop-color:#F6F6F6"/>
				<stop  offset="0.2739" style="stop-color:#FDFDFD"/>
				<stop  offset="0.4569" style="stop-color:#FFFFFF"/>
				<stop  offset="0.6812" style="stop-color:#FDFDFD"/>
				<stop  offset="0.7619" style="stop-color:#F6F6F6"/>
				<stop  offset="0.8195" style="stop-color:#EBEBEB"/>
				<stop  offset="0.8661" style="stop-color:#DADADA"/>
				<stop  offset="0.9059" style="stop-color:#C4C4C4"/>
				<stop  offset="0.9412" style="stop-color:#A8A8A8"/>
				<stop  offset="0.9724" style="stop-color:#898989"/>
				<stop  offset="1" style="stop-color:#666666"/>
			</linearGradient>
			<line fill="url(#SVGID_6_)" stroke="url(#SVGID_7_)" stroke-miterlimit="10" x1="306.5" y1="138" x2="306.5" y2="178"/>
		</g>
		<g>
			
				<linearGradient id="SVGID_8_" gradientUnits="userSpaceOnUse" x1="3112.5" y1="-231" x2="3112.5" y2="-231" gradientTransform="matrix(-1 0 0 -1 3122 -72)">
				<stop  offset="0" style="stop-color:#FFFFFF"/>
				<stop  offset="1" style="stop-color:#000000"/>
			</linearGradient>
			
				<linearGradient id="SVGID_9_" gradientUnits="userSpaceOnUse" x1="3112.5" y1="-211" x2="3112.5" y2="-251" gradientTransform="matrix(-1 0 0 -1 3122 -72)">
				<stop  offset="0" style="stop-color:#4D4D4D"/>
				<stop  offset="0.4569" style="stop-color:#B3B3B3"/>
				<stop  offset="0.9463" style="stop-color:#666666"/>
			</linearGradient>
			<line fill="url(#SVGID_8_)" stroke="url(#SVGID_9_)" stroke-miterlimit="10" x1="9.5" y1="179" x2="9.5" y2="139"/>
			
				<linearGradient id="SVGID_10_" gradientUnits="userSpaceOnUse" x1="3113.5" y1="-231" x2="3113.5" y2="-231" gradientTransform="matrix(-1 0 0 -1 3122 -72)">
				<stop  offset="0" style="stop-color:#FFFFFF"/>
				<stop  offset="1" style="stop-color:#000000"/>
			</linearGradient>
			
				<linearGradient id="SVGID_11_" gradientUnits="userSpaceOnUse" x1="3113.5" y1="-211" x2="3113.5" y2="-251" gradientTransform="matrix(-1 0 0 -1 3122 -72)">
				<stop  offset="0" style="stop-color:#4D4D4D"/>
				<stop  offset="1.236429e-02" style="stop-color:#646464"/>
				<stop  offset="3.551606e-02" style="stop-color:#888888"/>
				<stop  offset="6.158365e-02" style="stop-color:#A8A8A8"/>
				<stop  offset="9.042222e-02" style="stop-color:#C4C4C4"/>
				<stop  offset="0.123" style="stop-color:#DADADA"/>
				<stop  offset="0.161" style="stop-color:#EBEBEB"/>
				<stop  offset="0.208" style="stop-color:#F6F6F6"/>
				<stop  offset="0.2739" style="stop-color:#FDFDFD"/>
				<stop  offset="0.4569" style="stop-color:#FFFFFF"/>
				<stop  offset="0.6812" style="stop-color:#FDFDFD"/>
				<stop  offset="0.7619" style="stop-color:#F6F6F6"/>
				<stop  offset="0.8195" style="stop-color:#EBEBEB"/>
				<stop  offset="0.8661" style="stop-color:#DADADA"/>
				<stop  offset="0.9059" style="stop-color:#C4C4C4"/>
				<stop  offset="0.9412" style="stop-color:#A8A8A8"/>
				<stop  offset="0.9724" style="stop-color:#898989"/>
				<stop  offset="1" style="stop-color:#666666"/>
			</linearGradient>
			<line fill="url(#SVGID_10_)" stroke="url(#SVGID_11_)" stroke-miterlimit="10" x1="8.5" y1="179" x2="8.5" y2="139"/>
		</g>
		<g>
			
				<linearGradient id="SVGID_12_" gradientUnits="userSpaceOnUse" x1="3112.5" y1="-168.5" x2="3112.5" y2="-168.5" gradientTransform="matrix(-1 0 0 -1 3122 -72)">
				<stop  offset="0" style="stop-color:#FFFFFF"/>
				<stop  offset="1" style="stop-color:#000000"/>
			</linearGradient>
			
				<linearGradient id="SVGID_13_" gradientUnits="userSpaceOnUse" x1="3112.5" y1="-156" x2="3112.5" y2="-181" gradientTransform="matrix(-1 0 0 -1 3122 -72)">
				<stop  offset="0" style="stop-color:#333333"/>
				<stop  offset="0.4569" style="stop-color:#B3B3B3"/>
				<stop  offset="0.9463" style="stop-color:#333333"/>
			</linearGradient>
			<line fill="url(#SVGID_12_)" stroke="url(#SVGID_13_)" stroke-miterlimit="10" x1="9.5" y1="109" x2="9.5" y2="84"/>
			
				<linearGradient id="SVGID_14_" gradientUnits="userSpaceOnUse" x1="3113.5" y1="-168.5" x2="3113.5" y2="-168.5" gradientTransform="matrix(-1 0 0 -1 3122 -72)">
				<stop  offset="0" style="stop-color:#FFFFFF"/>
				<stop  offset="1" style="stop-color:#000000"/>
			</linearGradient>
			
				<linearGradient id="SVGID_15_" gradientUnits="userSpaceOnUse" x1="3113.5" y1="-156" x2="3113.5" y2="-181" gradientTransform="matrix(-1 0 0 -1 3122 -72)">
				<stop  offset="0" style="stop-color:#4D4D4D"/>
				<stop  offset="1.236429e-02" style="stop-color:#646464"/>
				<stop  offset="3.551606e-02" style="stop-color:#888888"/>
				<stop  offset="6.158365e-02" style="stop-color:#A8A8A8"/>
				<stop  offset="9.042222e-02" style="stop-color:#C4C4C4"/>
				<stop  offset="0.123" style="stop-color:#DADADA"/>
				<stop  offset="0.161" style="stop-color:#EBEBEB"/>
				<stop  offset="0.208" style="stop-color:#F6F6F6"/>
				<stop  offset="0.2739" style="stop-color:#FDFDFD"/>
				<stop  offset="0.4569" style="stop-color:#FFFFFF"/>
				<stop  offset="0.6812" style="stop-color:#FDFDFD"/>
				<stop  offset="0.7619" style="stop-color:#F6F6F6"/>
				<stop  offset="0.8195" style="stop-color:#EBEBEB"/>
				<stop  offset="0.8661" style="stop-color:#DADADA"/>
				<stop  offset="0.9059" style="stop-color:#C4C4C4"/>
				<stop  offset="0.9412" style="stop-color:#A8A8A8"/>
				<stop  offset="0.9724" style="stop-color:#898989"/>
				<stop  offset="1" style="stop-color:#666666"/>
			</linearGradient>
			<line fill="url(#SVGID_14_)" stroke="url(#SVGID_15_)" stroke-miterlimit="10" x1="8.5" y1="109" x2="8.5" y2="84"/>
		</g>
		<g>
			
				<linearGradient id="SVGID_16_" gradientUnits="userSpaceOnUse" x1="3112.5" y1="-285" x2="3112.5" y2="-285" gradientTransform="matrix(-1 0 0 -1 3122 -72)">
				<stop  offset="0" style="stop-color:#FFFFFF"/>
				<stop  offset="1" style="stop-color:#000000"/>
			</linearGradient>
			
				<linearGradient id="SVGID_17_" gradientUnits="userSpaceOnUse" x1="3112.5" y1="-265" x2="3112.5" y2="-305" gradientTransform="matrix(-1 0 0 -1 3122 -72)">
				<stop  offset="0" style="stop-color:#4D4D4D"/>
				<stop  offset="0.4569" style="stop-color:#B3B3B3"/>
				<stop  offset="0.9463" style="stop-color:#666666"/>
			</linearGradient>
			<line fill="url(#SVGID_16_)" stroke="url(#SVGID_17_)" stroke-miterlimit="10" x1="9.5" y1="233" x2="9.5" y2="193"/>
			
				<linearGradient id="SVGID_18_" gradientUnits="userSpaceOnUse" x1="3113.5" y1="-285" x2="3113.5" y2="-285" gradientTransform="matrix(-1 0 0 -1 3122 -72)">
				<stop  offset="0" style="stop-color:#FFFFFF"/>
				<stop  offset="1" style="stop-color:#000000"/>
			</linearGradient>
			
				<linearGradient id="SVGID_19_" gradientUnits="userSpaceOnUse" x1="3113.5" y1="-265" x2="3113.5" y2="-305" gradientTransform="matrix(-1 0 0 -1 3122 -72)">
				<stop  offset="0" style="stop-color:#4D4D4D"/>
				<stop  offset="1.236429e-02" style="stop-color:#646464"/>
				<stop  offset="3.551606e-02" style="stop-color:#888888"/>
				<stop  offset="6.158365e-02" style="stop-color:#A8A8A8"/>
				<stop  offset="9.042222e-02" style="stop-color:#C4C4C4"/>
				<stop  offset="0.123" style="stop-color:#DADADA"/>
				<stop  offset="0.161" style="stop-color:#EBEBEB"/>
				<stop  offset="0.208" style="stop-color:#F6F6F6"/>
				<stop  offset="0.2739" style="stop-color:#FDFDFD"/>
				<stop  offset="0.4569" style="stop-color:#FFFFFF"/>
				<stop  offset="0.6812" style="stop-color:#FDFDFD"/>
				<stop  offset="0.7619" style="stop-color:#F6F6F6"/>
				<stop  offset="0.8195" style="stop-color:#EBEBEB"/>
				<stop  offset="0.8661" style="stop-color:#DADADA"/>
				<stop  offset="0.9059" style="stop-color:#C4C4C4"/>
				<stop  offset="0.9412" style="stop-color:#A8A8A8"/>
				<stop  offset="0.9724" style="stop-color:#898989"/>
				<stop  offset="1" style="stop-color:#666666"/>
			</linearGradient>
			<line fill="url(#SVGID_18_)" stroke="url(#SVGID_19_)" stroke-miterlimit="10" x1="8.5" y1="233" x2="8.5" y2="193"/>
		</g>
		<linearGradient id="Outside_1_" gradientUnits="userSpaceOnUse" x1="10.4012" y1="309.5876" x2="304.4957" y2="309.5876">
			<stop  offset="0" style="stop-color:#4D4D4D"/>
			<stop  offset="1" style="stop-color:#1A1A1A"/>
		</linearGradient>
		<path id="Outside_2_" fill="#FFFFFF" stroke="url(#Outside_1_)" stroke-width="2.3622" stroke-miterlimit="10" d="M263,609.6H51.9
			c-22.2,0-40.3-18.1-40.3-40.3V49.9c0-22.2,18.1-40.3,40.3-40.3H263c22.2,0,40.3,18.1,40.3,40.3v519.4
			C303.3,591.4,285.2,609.6,263,609.6z"/>
		<linearGradient id="Inside_1_" gradientUnits="userSpaceOnUse" x1="13.3539" y1="309.5876" x2="301.5429" y2="309.5876">
			<stop  offset="0" style="stop-color:#000000"/>
			<stop  offset="1" style="stop-color:#070707"/>
		</linearGradient>
		<linearGradient id="Inside_3_" gradientUnits="userSpaceOnUse" x1="12.1728" y1="309.5876" x2="302.724" y2="309.5876">
			<stop  offset="0" style="stop-color:#999999"/>
			<stop  offset="1" style="stop-color:#666666"/>
		</linearGradient>
		<path id="Inside_2_" fill="url(#Inside_1_)" stroke="url(#Inside_3_)" stroke-width="2.3622" stroke-miterlimit="10" d="
			M262.1,608.4H52.8c-21.7,0-39.4-17.7-39.4-39.4V50.2c0-21.7,17.7-39.4,39.4-39.4h209.3c21.7,0,39.4,17.7,39.4,39.4V569
			C301.5,590.7,283.8,608.4,262.1,608.4z"/>
		<linearGradient id="SVGID_20_" gradientUnits="userSpaceOnUse" x1="38.8819" y1="605.916" x2="38.8819" y2="18.1029">
			<stop  offset="0" style="stop-color:#4D4D4D"/>
			<stop  offset="0.1066" style="stop-color:#424242"/>
			<stop  offset="0.2949" style="stop-color:#242424"/>
			<stop  offset="0.4835" style="stop-color:#000000"/>
			<stop  offset="0.6228" style="stop-color:#202020"/>
			<stop  offset="0.7649" style="stop-color:#393939"/>
			<stop  offset="0.8947" style="stop-color:#484848"/>
			<stop  offset="1" style="stop-color:#4D4D4D"/>
		</linearGradient>
		<path opacity="0.7" fill="url(#SVGID_20_)" d="M59.8,18.2c0,0-20.2-1.7-30.3,7.7C18.4,36.3,18,53.3,18,53.3V572
			c0,0,0.1,13.4,11.3,22.2c9,7.1,20.7,11.7,20.7,11.7s-29.7-12.2-29.8-33.5c0-21.2-0.7-518.9-0.7-518.9s1.1-38.4,40.2-35.1"/>
		
			<line fill="none" stroke="#4D4D4D" stroke-width="4" stroke-linecap="round" stroke-miterlimit="10" x1="137" y1="45" x2="178" y2="45"/>
		<linearGradient id="SVGID_21_" gradientUnits="userSpaceOnUse" x1="106.8781" y1="42.3996" x2="115.1833" y2="47.1946">
			<stop  offset="0" style="stop-color:#000000"/>
			<stop  offset="0.2372" style="stop-color:#030303"/>
			<stop  offset="0.4097" style="stop-color:#0C0C0C"/>
			<stop  offset="0.5617" style="stop-color:#1C1C1C"/>
			<stop  offset="0.702" style="stop-color:#333333"/>
			<stop  offset="0.834" style="stop-color:#4F4F4F"/>
			<stop  offset="0.9583" style="stop-color:#727272"/>
			<stop  offset="1" style="stop-color:#808080"/>
		</linearGradient>
		<path fill="#1A1A1A" stroke="url(#SVGID_21_)" stroke-width="1.1811" stroke-linecap="round" stroke-miterlimit="10" d="M111,49
			L111,49c-2.3,0-4.2-1.9-4.2-4.2v0c0-2.3,1.9-4.2,4.2-4.2h0c2.3,0,4.2,1.9,4.2,4.2v0C115.2,47.1,113.3,49,111,49z"/>
		<linearGradient id="SVGID_22_" gradientUnits="userSpaceOnUse" x1="137.3637" y1="583.9722" x2="176.7504" y2="561.2322">
			<stop  offset="0" style="stop-color:#666666"/>
			<stop  offset="0.5317" style="stop-color:#000000"/>
			<stop  offset="1" style="stop-color:#4D4D4D"/>
		</linearGradient>
		<circle fill="#1A1A1A" stroke="url(#SVGID_22_)" stroke-width="1.1811" stroke-miterlimit="10" cx="157.1" cy="572.6" r="22.1"/>
		
			<linearGradient id="SVGID_23_" gradientUnits="userSpaceOnUse" x1="4318.5967" y1="603.4585" x2="4318.5967" y2="19.284" gradientTransform="matrix(-0.6014 0 0 1 2875.7114 0)">
			<stop  offset="0" style="stop-color:#4D4D4D"/>
			<stop  offset="0.1066" style="stop-color:#424242"/>
			<stop  offset="0.2949" style="stop-color:#242424"/>
			<stop  offset="0.4835" style="stop-color:#000000"/>
			<stop  offset="0.6228" style="stop-color:#202020"/>
			<stop  offset="0.7649" style="stop-color:#393939"/>
			<stop  offset="0.8947" style="stop-color:#484848"/>
			<stop  offset="1" style="stop-color:#4D4D4D"/>
		</linearGradient>
		<path opacity="0.47" fill="url(#SVGID_23_)" d="M262,19.4c0,0,16-1.7,24,7.7c8.8,10.3,9,27.2,9,27.2v515.6c0,0,0,13.3-8.9,22
			c-7.2,7.1-16.4,11.6-16.4,11.6s23.6-12.1,23.6-33.3c0-21.1,0.6-515.7,0.6-515.7s-0.8-38.2-31.9-34.8"/>
		<linearGradient id="SVGID_24_" gradientUnits="userSpaceOnUse" x1="28.0497" y1="307.5924" x2="286.9218" y2="307.5924">
			<stop  offset="0" style="stop-color:#333333"/>
			<stop  offset="0.4569" style="stop-color:#B3B3B3"/>
			<stop  offset="0.9463" style="stop-color:#333333"/>
		</linearGradient>
		
			<rect x="28.5" y="78.8" fill="#F2F2F2" stroke="url(#SVGID_24_)" stroke-width="0.8858" stroke-miterlimit="10" width="258" height="457.5"/>
		<linearGradient id="SVGID_25_" gradientUnits="userSpaceOnUse" x1="28.0497" y1="88.396" x2="286.9218" y2="88.396">
			<stop  offset="0" style="stop-color:#1A1A1A"/>
			<stop  offset="0.4569" style="stop-color:#333333"/>
			<stop  offset="0.9463" style="stop-color:#1A1A1A"/>
		</linearGradient>
		
			<rect x="28.5" y="77.7" fill="#1A1A1A" stroke="url(#SVGID_25_)" stroke-width="0.8858" stroke-miterlimit="10" width="258" height="21.5"/>
		<text transform="matrix(1.1 0 0 1 142.4444 90.664)" fill="#F2F2F2" font-family="'MyriadPro-Regular'" font-size="8.2677">9:41AM</text>
		<text transform="matrix(1 0 0 1 244.7046 90.6641)" fill="#F2F2F2" font-family="'MyriadPro-Regular'" font-size="8.2677">100%</text>
		
			<rect x="266.9" y="86.1" fill="#22B573" stroke="#CCCCCC" stroke-width="0.5906" stroke-miterlimit="10" width="13.6" height="3.9"/>
		<circle fill="#FFFFFF" cx="35.3" cy="88.1" r="1.6"/>
		<circle fill="#FFFFFF" cx="40.1" cy="88.1" r="1.6"/>
		<circle fill="#FFFFFF" cx="44.8" cy="88.1" r="1.6"/>
		<g>
			<path fill="#F2F2F2" d="M63.1,87.9c-0.9,0-1.6,0.7-1.6,1.6c0,0.9,0.7,1.6,1.6,1.6s1.6-0.7,1.6-1.6C64.8,88.6,64,87.9,63.1,87.9z
				 M63.1,90.7c-0.7,0-1.2-0.6-1.2-1.2s0.6-1.2,1.2-1.2c0.7,0,1.2,0.6,1.2,1.2S63.8,90.7,63.1,90.7z"/>
			<polygon fill="#1A1A1A" points="63.1,89.6 64.9,88.1 65.2,92 60.8,91.7 61,87.9 			"/>
		</g>
		<circle fill="#FFFFFF" cx="50.4" cy="88.1" r="1.6"/>
		<circle fill="#FFFFFF" cx="55.4" cy="88.1" r="1.6"/>
		<rect x="280.8" y="87.2" fill="#CCCCCC" width="0.8" height="1.6"/>
		<polygon fill="#FFFFFF" points="62.6,89.4 63.1,89.9 63.7,89.4 63.1,89.2 		"/>
	</g>
	<g id="Plateforms">
		<g id="Apple_icon">
		</g>
		<g id="Windows_mobile_icon">
		</g>
		<g id="Android_icon">
		</g>
	</g>
	<g id="screen">
		<rect x="28.9" y="99.5" fill="#1690C3" width="257.1" height="24.9"/>
		<text transform="matrix(1 0 0 1 134.9998 115.167)" fill="#FFFFFF" font-family="'MyriadPro-Regular'" font-size="12">TradeMapp</text>
		<path fill="#FFFFFF" d="M273.1,106.5c-3,0-5.4,2.4-5.4,5.4s2.4,5.4,5.4,5.4s5.4-2.4,5.4-5.4S276.1,106.5,273.1,106.5z M276,114h-6
			v-1h6V114z M276,112h-6v-1h6V112z M276,110h-6v-1h6V110z"/>
		<linearGradient id="SVGID_26_" gradientUnits="userSpaceOnUse" x1="124.7319" y1="103.9774" x2="191.1533" y2="219.0226">
			<stop  offset="0" style="stop-color:#FFFFFF"/>
			<stop  offset="0.9183" style="stop-color:#D7D7D7"/>
			<stop  offset="1" style="stop-color:#D3D3D3"/>
		</linearGradient>
		<path fill="#FFFFFF" stroke="url(#SVGID_26_)" stroke-miterlimit="10" d="M258.5,179H57.3c-1.9,0-3.5-1.6-3.5-3.5v-28
			c0-1.9,1.6-3.5,3.5-3.5h201.2c1.9,0,3.5,1.6,3.5,3.5v28C262,177.4,260.5,179,258.5,179z"/>
		<linearGradient id="SVGID_27_" gradientUnits="userSpaceOnUse" x1="53.3583" y1="211" x2="262.5269" y2="211">
			<stop  offset="0" style="stop-color:#FFFFFF"/>
			<stop  offset="0.9183" style="stop-color:#D7D7D7"/>
			<stop  offset="1" style="stop-color:#D3D3D3"/>
		</linearGradient>
		<path fill="#FFFFFF" stroke="url(#SVGID_27_)" stroke-miterlimit="10" d="M258.5,228.5H57.3c-1.9,0-3.5-1.6-3.5-3.5v-28
			c0-1.9,1.6-3.5,3.5-3.5h201.2c1.9,0,3.5,1.6,3.5,3.5v28C262,226.9,260.5,228.5,258.5,228.5z"/>
		<text transform="matrix(1 0 0 1 63.6949 164.5)" font-family="'HelveticaNeue-Bold'" font-size="10">Retail A - Audit North</text>
		<text transform="matrix(1 0 0 1 63.6949 213)" font-family="'HelveticaNeue-Bold'" font-size="10">Retail A - Audit Center</text>
		<linearGradient id="SVGID_28_" gradientUnits="userSpaceOnUse" x1="53.3583" y1="263" x2="262.5269" y2="263">
			<stop  offset="0" style="stop-color:#FFFFFF"/>
			<stop  offset="0.9183" style="stop-color:#D7D7D7"/>
			<stop  offset="1" style="stop-color:#D3D3D3"/>
		</linearGradient>
		<path fill="#FFFFFF" stroke="url(#SVGID_28_)" stroke-miterlimit="10" d="M258.5,280.5H57.3c-1.9,0-3.5-1.6-3.5-3.5v-28
			c0-1.9,1.6-3.5,3.5-3.5h201.2c1.9,0,3.5,1.6,3.5,3.5v28C262,278.9,260.5,280.5,258.5,280.5z"/>
		<path fill="#1690C3" d="M148.3,527.1H78.4c-1.7,0-3-1.4-3-3V505c0-1.7,1.4-3,3-3h69.9c1.7,0,3,1.4,3,3v19.1
			C151.3,525.7,149.9,527.1,148.3,527.1z"/>
		<path fill="#1690C3" d="M236.9,527.1H167c-1.7,0-3-1.4-3-3V505c0-1.7,1.4-3,3-3h69.9c1.7,0,3,1.4,3,3v19.1
			C239.9,525.7,238.6,527.1,236.9,527.1z"/>
		<text transform="matrix(1 0 0 1 63.6949 265)" font-family="'HelveticaNeue-Bold'" font-size="10">Retail B - Audit Center</text>
		<text transform="matrix(1 0 0 1 97.4854 517.6666)" fill="#FFFFFF" font-family="'HelveticaNeue-Bold'" font-size="10">Import</text>
		<text transform="matrix(1 0 0 1 183.4111 517.6666)" fill="#FFFFFF" font-family="'HelveticaNeue-Bold'" font-size="10">Transfer</text>
		<g>
			<g>
				<circle fill="#1690C3" cx="240" cy="159" r="6.3"/>
				<polyline fill="#1690C3" stroke="#FFFFFF" stroke-width="0.7917" stroke-linecap="round" stroke-miterlimit="10" points="
					238.6,156 242.7,159 238.5,162.1 				"/>
			</g>
		</g>
		<g>
			<g>
				<circle fill="#1690C3" cx="240" cy="211" r="6.3"/>
				<polyline fill="#1690C3" stroke="#FFFFFF" stroke-width="0.7917" stroke-linecap="round" stroke-miterlimit="10" points="
					238.6,208 242.7,211 238.5,214.1 				"/>
			</g>
		</g>
		<g>
			<g>
				<circle fill="#1690C3" cx="240" cy="263" r="6.3"/>
				<polyline fill="#1690C3" stroke="#FFFFFF" stroke-width="0.7917" stroke-linecap="round" stroke-miterlimit="10" points="
					238.6,260 242.7,263 238.5,266.1 				"/>
			</g>
		</g>
		<g>
			<path fill="#1690C3" stroke="#FFFFFF" stroke-width="2" stroke-linecap="round" stroke-miterlimit="10" d="M237.4,214.5"/>
			<path fill="#1690C3" stroke="#FFFFFF" stroke-width="2" stroke-linecap="round" stroke-miterlimit="10" d="M237.4,206.2"/>
		</g>
	</g>
</g>
</svg>
