<?xml version="1.0" encoding="utf-8"?>
<!-- Generator: Adobe Illustrator 18.1.0, SVG Export Plug-In . SVG Version: 6.00 Build 0)  -->
<svg version="1.1" xmlns="http://www.w3.org/2000/svg" xmlns:xlink="http://www.w3.org/1999/xlink" x="0px" y="0px"
	 viewBox="0 0 1080 570" enable-background="new 0 0 1080 570" xml:space="preserve">
<g id="_x2F_">
	<g id="footer">
		<g id="Layer_28">
		</g>
	</g>
	<g id="Main_centered">
		<g id="Blue_marker">
		</g>
		<g id="Blue_marker_copy">
		</g>
		<g id="Blue_marker_copy_2">
		</g>
		<g id="Blue_marker_copy_3">
		</g>
		<g id="Blue_marker_copy_4">
		</g>
		<g id="Blue_marker_copy_5">
		</g>
		<g id="Blue_marker_copy_6">
		</g>
	</g>
	<g id="Main_right">
		<g id="Login_copy">
		</g>
	</g>
	<g id="Header">
		<g id="Logo">
			<g id="Logo_Icon_copy">
			</g>
		</g>
		<g id="Menu_1_">
			<g id="Login">
			</g>
		</g>
	</g>
</g>
<g id="_x2F_Test">
	<g id="LinkedIn">
	</g>
</g>
<g id="_x2F_Maps">
	
		<image overflow="visible" width="2010" height="923" xlink:href="trademapp Home Page composition/maps/Map.png"  transform="matrix(0.6336 0 0 0.6336 -97.6709 -8.5167)">
	</image>
	<polyline fill="none" stroke="#666666" stroke-miterlimit="10" points="405.5,378.7 542.9,362 522.4,266.6 504.9,158 612.3,172.8 
		662.6,216 708.7,289.9 	"/>
	<linearGradient id="SVGID_2_" gradientUnits="userSpaceOnUse" x1="526.0545" y1="136.599" x2="505.4476" y2="157.2059">
		<stop  offset="0" style="stop-color:#808080"/>
		<stop  offset="1" style="stop-color:#4D4D4D"/>
	</linearGradient>
	<path fill="url(#SVGID_2_)" d="M527.3,139.9c-2.9,7.5-21.4,17.8-21.4,17.8l12.9-19.8C518.8,137.9,529.3,134.7,527.3,139.9z"/>
	<linearGradient id="SVGID_4_" gradientUnits="userSpaceOnUse" x1="497.0326" y1="121.6346" x2="514.8622" y2="152.5164">
		<stop  offset="6.094714e-02" style="stop-color:#1E80B8"/>
		<stop  offset="0.8652" style="stop-color:#00759F"/>
		<stop  offset="0.9944" style="stop-color:#005B80"/>
	</linearGradient>
	<path fill="url(#SVGID_4_)" d="M519.9,134.4c0-8.4-6.8-14.9-15.2-14.9c-8.4,0-15.2,7-15.2,15.4c0,3,0.9,5.8,2.3,8.2
		c0,0,9.8,14.8,13.2,14.8c3.4,0.1,12.6-16.1,12.6-16.1h0c0.9-1.2,1.6-2.4,2-3.9C519.8,136.9,519.9,135.6,519.9,134.4z"/>
	<linearGradient id="SVGID_5_" gradientUnits="userSpaceOnUse" x1="501.454" y1="129.1625" x2="508.0063" y2="140.5114">
		<stop  offset="6.094714e-02" style="stop-color:#1E80B8"/>
		<stop  offset="0.8652" style="stop-color:#00759F"/>
		<stop  offset="0.9944" style="stop-color:#005B80"/>
	</linearGradient>
	<path fill="#FFFFFF" stroke="url(#SVGID_5_)" stroke-miterlimit="10" d="M510.6,133.5c1,4.4-2.9,8.3-7.3,7.3
		c-2.2-0.5-4-2.3-4.5-4.5c-1-4.4,2.9-8.3,7.3-7.3C508.3,129.4,510.1,131.2,510.6,133.5z"/>
	<linearGradient id="SVGID_6_" gradientUnits="userSpaceOnUse" x1="544.0545" y1="241.599" x2="523.4476" y2="262.2059">
		<stop  offset="0" style="stop-color:#808080"/>
		<stop  offset="1" style="stop-color:#4D4D4D"/>
	</linearGradient>
	<path fill="url(#SVGID_6_)" d="M545.3,244.9c-2.9,7.5-21.4,17.8-21.4,17.8l12.9-19.8C536.8,242.9,547.3,239.7,545.3,244.9z"/>
	<path fill="#DC6F71" d="M537.9,239.4c0-8.4-6.8-14.9-15.2-14.9c-8.4,0-15.2,7-15.2,15.4c0,3,0.9,5.8,2.3,8.2
		c0,0,9.8,14.8,13.2,14.8c3.4,0.1,12.6-16.1,12.6-16.1h0c0.9-1.2,1.6-2.4,2-3.9C537.8,241.9,537.9,240.6,537.9,239.4z"/>
	<path fill="#FFFFFF" stroke="#DC6F71" stroke-miterlimit="10" d="M528.6,238.5c1,4.4-2.9,8.3-7.3,7.3c-2.2-0.5-4-2.3-4.5-4.5
		c-1-4.4,2.9-8.3,7.3-7.3C526.3,234.4,528.1,236.2,528.6,238.5z"/>
	<linearGradient id="SVGID_7_" gradientUnits="userSpaceOnUse" x1="564.0545" y1="340.599" x2="543.4476" y2="361.2059">
		<stop  offset="0" style="stop-color:#808080"/>
		<stop  offset="1" style="stop-color:#4D4D4D"/>
	</linearGradient>
	<path fill="url(#SVGID_7_)" d="M565.3,343.9c-2.9,7.5-21.4,17.8-21.4,17.8l12.9-19.8C556.8,341.9,567.3,338.7,565.3,343.9z"/>
	<linearGradient id="SVGID_8_" gradientUnits="userSpaceOnUse" x1="535.0327" y1="325.6346" x2="552.8622" y2="356.5164">
		<stop  offset="6.094714e-02" style="stop-color:#1E80B8"/>
		<stop  offset="0.8652" style="stop-color:#00759F"/>
		<stop  offset="0.9944" style="stop-color:#005B80"/>
	</linearGradient>
	<path fill="url(#SVGID_8_)" d="M557.9,338.4c0-8.4-6.8-14.9-15.2-14.9c-8.4,0-15.2,7-15.2,15.4c0,3,0.9,5.8,2.3,8.2
		c0,0,9.8,14.8,13.2,14.8c3.4,0.1,12.6-16.1,12.6-16.1h0c0.9-1.2,1.6-2.4,2-3.9C557.8,340.9,557.9,339.6,557.9,338.4z"/>
	<linearGradient id="SVGID_9_" gradientUnits="userSpaceOnUse" x1="539.454" y1="333.1625" x2="546.0063" y2="344.5114">
		<stop  offset="6.094714e-02" style="stop-color:#1E80B8"/>
		<stop  offset="0.8652" style="stop-color:#00759F"/>
		<stop  offset="0.9944" style="stop-color:#005B80"/>
	</linearGradient>
	<path fill="#FFFFFF" stroke="url(#SVGID_9_)" stroke-miterlimit="10" d="M548.6,337.5c1,4.4-2.9,8.3-7.3,7.3
		c-2.2-0.5-4-2.3-4.5-4.5c-1-4.4,2.9-8.3,7.3-7.3C546.3,333.4,548.1,335.2,548.6,337.5z"/>
	<linearGradient id="SVGID_10_" gradientUnits="userSpaceOnUse" x1="428.0545" y1="359.599" x2="407.4476" y2="380.2059">
		<stop  offset="0" style="stop-color:#808080"/>
		<stop  offset="1" style="stop-color:#4D4D4D"/>
	</linearGradient>
	<path fill="url(#SVGID_10_)" d="M429.3,362.9c-2.9,7.5-21.4,17.8-21.4,17.8l12.9-19.8C420.8,360.9,431.3,357.7,429.3,362.9z"/>
	<linearGradient id="SVGID_11_" gradientUnits="userSpaceOnUse" x1="399.0326" y1="344.6346" x2="416.8622" y2="375.5164">
		<stop  offset="6.094714e-02" style="stop-color:#1E80B8"/>
		<stop  offset="0.8652" style="stop-color:#00759F"/>
		<stop  offset="0.9944" style="stop-color:#005B80"/>
	</linearGradient>
	<path fill="url(#SVGID_11_)" d="M421.9,357.4c0-8.4-6.8-14.9-15.2-14.9c-8.4,0-15.2,7-15.2,15.4c0,3,0.9,5.8,2.3,8.2
		c0,0,9.8,14.8,13.2,14.8c3.4,0.1,12.6-16.1,12.6-16.1h0c0.9-1.2,1.6-2.4,2-3.9C421.8,359.9,421.9,358.6,421.9,357.4z"/>
	<linearGradient id="SVGID_12_" gradientUnits="userSpaceOnUse" x1="403.454" y1="352.1625" x2="410.0063" y2="363.5114">
		<stop  offset="6.094714e-02" style="stop-color:#1E80B8"/>
		<stop  offset="0.8652" style="stop-color:#00759F"/>
		<stop  offset="0.9944" style="stop-color:#005B80"/>
	</linearGradient>
	<path fill="#FFFFFF" stroke="url(#SVGID_12_)" stroke-miterlimit="10" d="M412.6,356.5c1,4.4-2.9,8.3-7.3,7.3
		c-2.2-0.5-4-2.3-4.5-4.5c-1-4.4,2.9-8.3,7.3-7.3C410.3,352.4,412.1,354.2,412.6,356.5z"/>
	<linearGradient id="SVGID_13_" gradientUnits="userSpaceOnUse" x1="633.0545" y1="153.599" x2="612.4476" y2="174.2059">
		<stop  offset="0" style="stop-color:#808080"/>
		<stop  offset="1" style="stop-color:#4D4D4D"/>
	</linearGradient>
	<path fill="url(#SVGID_13_)" d="M634.3,156.9c-2.9,7.5-21.4,17.8-21.4,17.8l12.9-19.8C625.8,154.9,636.3,151.7,634.3,156.9z"/>
	<linearGradient id="SVGID_14_" gradientUnits="userSpaceOnUse" x1="604.0327" y1="138.6346" x2="621.8622" y2="169.5164">
		<stop  offset="6.094714e-02" style="stop-color:#1E80B8"/>
		<stop  offset="0.8652" style="stop-color:#00759F"/>
		<stop  offset="0.9944" style="stop-color:#005B80"/>
	</linearGradient>
	<path fill="url(#SVGID_14_)" d="M626.9,151.4c0-8.4-6.8-14.9-15.2-14.9c-8.4,0-15.2,7-15.2,15.4c0,3,0.9,5.8,2.3,8.2
		c0,0,9.8,14.8,13.2,14.8c3.4,0.1,12.6-16.1,12.6-16.1h0c0.9-1.2,1.6-2.4,2-3.9C626.8,153.9,626.9,152.6,626.9,151.4z"/>
	<linearGradient id="SVGID_15_" gradientUnits="userSpaceOnUse" x1="608.454" y1="146.1625" x2="615.0063" y2="157.5114">
		<stop  offset="6.094714e-02" style="stop-color:#1E80B8"/>
		<stop  offset="0.8652" style="stop-color:#00759F"/>
		<stop  offset="0.9944" style="stop-color:#005B80"/>
	</linearGradient>
	<path fill="#FFFFFF" stroke="url(#SVGID_15_)" stroke-miterlimit="10" d="M617.6,150.5c1,4.4-2.9,8.3-7.3,7.3
		c-2.2-0.5-4-2.3-4.5-4.5c-1-4.4,2.9-8.3,7.3-7.3C615.3,146.4,617.1,148.2,617.6,150.5z"/>
	<linearGradient id="SVGID_16_" gradientUnits="userSpaceOnUse" x1="686.0545" y1="196.599" x2="665.4476" y2="217.2059">
		<stop  offset="0" style="stop-color:#808080"/>
		<stop  offset="1" style="stop-color:#4D4D4D"/>
	</linearGradient>
	<path fill="url(#SVGID_16_)" d="M687.3,199.9c-2.9,7.5-21.4,17.8-21.4,17.8l12.9-19.8C678.8,197.9,689.3,194.7,687.3,199.9z"/>
	<linearGradient id="SVGID_17_" gradientUnits="userSpaceOnUse" x1="657.0327" y1="181.6346" x2="674.8622" y2="212.5164">
		<stop  offset="6.094714e-02" style="stop-color:#1E80B8"/>
		<stop  offset="0.8652" style="stop-color:#00759F"/>
		<stop  offset="0.9944" style="stop-color:#005B80"/>
	</linearGradient>
	<path fill="url(#SVGID_17_)" d="M679.9,194.4c0-8.4-6.8-14.9-15.2-14.9c-8.4,0-15.2,7-15.2,15.4c0,3,0.9,5.8,2.3,8.2
		c0,0,9.8,14.8,13.2,14.8c3.4,0.1,12.6-16.1,12.6-16.1h0c0.9-1.2,1.6-2.4,2-3.9C679.8,196.9,679.9,195.6,679.9,194.4z"/>
	<linearGradient id="SVGID_18_" gradientUnits="userSpaceOnUse" x1="661.454" y1="189.1625" x2="668.0063" y2="200.5114">
		<stop  offset="6.094714e-02" style="stop-color:#1E80B8"/>
		<stop  offset="0.8652" style="stop-color:#00759F"/>
		<stop  offset="0.9944" style="stop-color:#005B80"/>
	</linearGradient>
	<path fill="#FFFFFF" stroke="url(#SVGID_18_)" stroke-miterlimit="10" d="M670.6,193.5c1,4.4-2.9,8.3-7.3,7.3
		c-2.2-0.5-4-2.3-4.5-4.5c-1-4.4,2.9-8.3,7.3-7.3C668.3,189.4,670.1,191.2,670.6,193.5z"/>
	<linearGradient id="SVGID_19_" gradientUnits="userSpaceOnUse" x1="729.0545" y1="266.599" x2="708.4476" y2="287.2059">
		<stop  offset="0" style="stop-color:#808080"/>
		<stop  offset="1" style="stop-color:#4D4D4D"/>
	</linearGradient>
	<path fill="url(#SVGID_19_)" d="M730.3,269.9c-2.9,7.5-21.4,17.8-21.4,17.8l12.9-19.8C721.8,267.9,732.3,264.7,730.3,269.9z"/>
	<linearGradient id="SVGID_20_" gradientUnits="userSpaceOnUse" x1="700.0327" y1="251.6346" x2="717.8622" y2="282.5164">
		<stop  offset="6.094714e-02" style="stop-color:#1E80B8"/>
		<stop  offset="0.8652" style="stop-color:#00759F"/>
		<stop  offset="0.9944" style="stop-color:#005B80"/>
	</linearGradient>
	<path fill="url(#SVGID_20_)" d="M722.9,264.4c0-8.4-6.8-14.9-15.2-14.9c-8.4,0-15.2,7-15.2,15.4c0,3,0.9,5.8,2.3,8.2
		c0,0,9.8,14.8,13.2,14.8c3.4,0.1,12.6-16.1,12.6-16.1h0c0.9-1.2,1.6-2.4,2-3.9C722.8,266.9,722.9,265.6,722.9,264.4z"/>
	<linearGradient id="SVGID_21_" gradientUnits="userSpaceOnUse" x1="704.454" y1="259.1625" x2="711.0063" y2="270.5114">
		<stop  offset="6.094714e-02" style="stop-color:#1E80B8"/>
		<stop  offset="0.8652" style="stop-color:#00759F"/>
		<stop  offset="0.9944" style="stop-color:#005B80"/>
	</linearGradient>
	<path fill="#FFFFFF" stroke="url(#SVGID_21_)" stroke-miterlimit="10" d="M713.6,263.5c1,4.4-2.9,8.3-7.3,7.3
		c-2.2-0.5-4-2.3-4.5-4.5c-1-4.4,2.9-8.3,7.3-7.3C711.3,259.4,713.1,261.2,713.6,263.5z"/>
	<g>
		<path opacity="0.87" fill="#FFFFFF" stroke="#ADADAD" stroke-miterlimit="10" d="M575.5,196.7H284.1c-1.7,0-3-1.3-3-3v-179
			c0-1.7,1.3-3,3-3h291.4c1.7,0,3,1.3,3,3v179C578.5,195.3,577.2,196.7,575.5,196.7z"/>
		<text transform="matrix(1 0 0 1 293.0938 30.8568)"><tspan x="0" y="0" fill="#808080" font-family="'HelveticaNeue'" font-size="14">08/09/14 02:05PM</tspan><tspan x="121.8" y="0" font-family="'HelveticaNeue'" font-size="14"> -</tspan><tspan x="131.9" y="0" fill="#DC6F71" font-family="'HelveticaNeue'" font-size="14"> </tspan><tspan x="136.1" y="0" fill="#00719D" font-family="'HelveticaNeue'" font-size="14">Marcus Lamir</tspan><tspan x="0" y="16.8" font-family="'HelveticaNeue'" font-size="14">POS : </tspan><tspan x="42.6" y="16.8" fill="#00719D" font-family="'HelveticaNeue'" font-size="14">Techno Sales plc</tspan><tspan x="0" y="50.4" font-family="'HelveticaNeue'" font-size="14">Invoiced : </tspan><tspan x="68.4" y="50.4" font-family="'HelveticaNeue-Bold'" font-size="14">12.5 $</tspan><tspan x="0" y="67.2" font-family="'HelveticaNeue'" font-size="14">Credit : 2 $</tspan><tspan x="0" y="100.8" fill="#333333" font-family="'HelveticaNeue-Bold'" font-size="14">Sales</tspan><tspan x="0" y="117.6" font-family="'HelveticaNeue'" font-size="14">Prod V : 12</tspan><tspan x="0" y="134.4" font-family="'HelveticaNeue'" font-size="14">Prod B : 15</tspan><tspan x="0" y="151.2" font-family="'HelveticaNeue'" font-size="14">Prod A : 52</tspan></text>
		<path fill="#D3D3D3" d="M575.5,196.2h-9.4c-1.7,0-3-1.3-3-3V15c0-1.7,1.3-3,3-3h9.4c1.7,0,3,1.3,3,3v178.2
			C578.5,194.9,577.2,196.2,575.5,196.2z"/>
		<line fill="#949494" x1="289.1" y1="59" x2="559.1" y2="59"/>
		<line fill="#949494" x1="289.1" y1="111" x2="559.1" y2="111"/>
		<polygon fill="#808080" points="567.4,23 571.1,16.6 574.8,23 		"/>
		<polygon fill="#808080" points="574.8,187 571.1,193.4 567.4,187 		"/>
	</g>
</g>
<g id="_x2F_Contact">
	<g id="Header_copy_2">
		<g id="Logo_copy_3">
			<g id="footer_copy_2">
				<g id="Layer_28_copy_2" display="none">
				</g>
			</g>
			<g id="Logo_Icon_copy_4">
			</g>
		</g>
		<g id="Menu_copy_3">
			<g id="Login_copy_7">
			</g>
		</g>
	</g>
	<g id="footer_copy_3">
		<g id="Layer_28_copy_3">
		</g>
	</g>
</g>
<g id="_x2F_Pricing">
	<g id="footer_copy">
		<g id="Layer_28_copy">
		</g>
	</g>
	<g id="Header_copy">
		<g id="Logo_copy_2">
			<g id="Logo_Icon_copy_3">
			</g>
		</g>
		<g id="Menu_copy_2">
			<g id="Login_copy_5">
			</g>
		</g>
	</g>
	<g id="Plans">
		<g id="Layer_58">
		</g>
	</g>
</g>
<g id="Icons">
	<g id="Logo_1_">
		<g id="Logo_Icon">
		</g>
	</g>
	<g id="Makers">
		<g id="Layer_20">
		</g>
	</g>
</g>
<g id="Legend">
	<g id="Logo_2_">
	</g>
	<g id="Menu">
	</g>
</g>
<g id="Helpers_1_" display="none">
</g>
<g id="Layer_30">
</g>
<g id="Grid" display="none">
</g>
<g id="Time_Icon">
</g>
<g id="Word_Cloud">
</g>
<g id="Excel_icon">
	<g id="Icon">
	</g>
</g>
<g id="Iphone">
	<g id="Plateforms">
		<g id="Apple_icon">
		</g>
		<g id="Windows_mobile_icon">
		</g>
		<g id="Android_icon">
		</g>
	</g>
	<g id="screen">
	</g>
</g>
</svg>
