<?xml version="1.0" encoding="utf-8"?>
<!-- Generator: Adobe Illustrator 18.1.0, SVG Export Plug-In . SVG Version: 6.00 Build 0)  -->
<svg version="1.1" xmlns="http://www.w3.org/2000/svg" xmlns:xlink="http://www.w3.org/1999/xlink" x="0px" y="0px"
	 viewBox="0 0 161.3 52" enable-background="new 0 0 161.3 52" xml:space="preserve">
<g id="_x2F_">
	<g id="footer">
		<g id="Layer_28">
		</g>
	</g>
	<g id="Chrome_Main" display="none">
		<defs>
			<rect id="SVGID_1_" x="-863.5" y="-972" width="1251" height="1004"/>
		</defs>
		<clipPath id="SVGID_2_" display="inline">
			<use xlink:href="#SVGID_1_"  overflow="visible"/>
		</clipPath>
		<g display="inline" clip-path="url(#SVGID_2_)">
			
				<image overflow="visible" width="1251" height="1023" xlink:href="../Documents/teknimotion/Products/tradeMapp - Media builds/Raw Media Material/Chrome Main.png"  transform="matrix(1 0 0 1 -863.5417 -991)">
			</image>
		</g>
	</g>
	<g id="Main_centered">
		<g id="Blue_marker">
		</g>
		<g id="Blue_marker_copy">
		</g>
		<g id="Blue_marker_copy_2">
		</g>
		<g id="Blue_marker_copy_3">
		</g>
		<g id="Blue_marker_copy_4">
		</g>
		<g id="Blue_marker_copy_5">
		</g>
		<g id="Blue_marker_copy_6">
		</g>
	</g>
	<g id="Main_right">
		<g id="Login_copy">
		</g>
	</g>
	<g id="Header">
		<g id="Logo">
			<g id="Logo_Icon_copy">
			</g>
		</g>
		<g id="Menu_1_">
			<g id="Login">
			</g>
		</g>
	</g>
</g>
<g id="_x2F_Test">
	<g id="LinkedIn">
	</g>
</g>
<g id="_x2F_Maps">
</g>
<g id="_x2F_Contact">
	<g id="Header_copy_2">
		<g id="Logo_copy_3">
			<g id="footer_copy_2">
				<g id="Layer_28_copy_2" display="none">
				</g>
			</g>
			<g id="Logo_Icon_copy_4">
			</g>
		</g>
		<g id="Menu_copy_3">
			<g id="Login_copy_7">
			</g>
		</g>
	</g>
	<g id="footer_copy_3">
		<g id="Layer_28_copy_3">
		</g>
	</g>
</g>
<g id="_x2F_Pricing">
	<g id="footer_copy">
		<g id="Layer_28_copy">
		</g>
	</g>
	<g id="Header_copy">
		<g id="Logo_copy_2">
			<g id="Logo_Icon_copy_3">
			</g>
		</g>
		<g id="Menu_copy_2">
			<g id="Login_copy_5">
			</g>
		</g>
	</g>
	<g id="Plans">
		<g id="Layer_58">
		</g>
	</g>
</g>
<g id="Icons">
	<g id="Logo_1_">
		<g id="Logo_Icon">
		</g>
	</g>
	<g id="Makers">
		<g id="Layer_20">
		</g>
	</g>
</g>
<g id="Legend">
	<g id="Logo_2_">
	</g>
	<g id="Menu">
	</g>
</g>
<g id="Helpers_1_" display="none">
</g>
<g id="Layer_30">
</g>
<g id="Grid" display="none">
</g>
<g id="Time_Icon">
</g>
<g id="Word_Cloud">
</g>
<g id="Excel_icon">
	<g id="Icon">
	</g>
</g>
<g id="Iphone">
	<g id="Plateforms">
		<g id="Apple_icon">
			<path d="M89.9,6c0,0-3.4,0.2-6,3c-2.6,2.9-1.9,6.3-1.9,6.3s3.9,0,6.1-3C90.2,9.5,90,6,90,6"/>
			<path d="M97.8,17.9c0,0-4.1,2.4-4.1,7.5s5.4,7.7,5.4,7.7S94.8,43.5,90,43.5c-2.8,0.1-3.1-1.7-6.7-1.7c-4.5,0-3.5,1.7-6.9,1.7
				c-3.2,0-10.6-8.4-10.3-18.1c0.3-9.6,7.7-11.5,9.3-11.5c3.6,0,6.1,1.6,8.1,1.6c2.2,0,3.1-1.6,7.4-1.6C95.4,14,97.8,17.9,97.8,17.9
				z"/>
		</g>
		<g id="Windows_mobile_icon">
			<path fill="#1690C3" d="M15.5,10.3c0,0,3.8-1.7,8.4-1.7s7.9,2.5,7.9,2.5l-4,14.6c0,0-3.7-3-7.1-2.9s-9.1,1.9-9.1,1.9L15.5,10.3z"
				/>
			<path fill="#1690C3" d="M34.3,12.7c0,0,3.4,3.2,7.6,3.2s8.5-2.3,8.5-2.3l-4.1,14.8c0,0-4.6,1.9-8.2,1.8c-3.6-0.1-8-2.9-8-2.9
				L34.3,12.7z"/>
			<path fill="#1690C3" d="M29.4,29.9c0,0,3.7,3,7.8,2.9s8.2-2,8.2-2l-4,14.5c0,0-3.6,1.9-7.7,1.8s-8.4-2.8-8.4-2.8L29.4,29.9z"/>
			<path fill="#1690C3" d="M10.6,27.4c0,0,4.2-2,8.4-2c4.1,0.1,8,2.7,8,2.7l-4.1,15c0,0-3.9-2.9-7.1-2.9s-9,1.7-8.9,1.6
				C6.8,41.7,10.6,27.4,10.6,27.4z"/>
		</g>
		<g id="Android_icon">
			
				<line fill="#39964A" stroke="#A5C644" stroke-linecap="round" stroke-miterlimit="10" x1="126.3" y1="7.7" x2="128.8" y2="11.2"/>
			
				<line fill="#39964A" stroke="#A5C644" stroke-linecap="round" stroke-miterlimit="10" x1="140.3" y1="7.7" x2="137.5" y2="11.6"/>
			
				<line fill="#A5C644" stroke="#A5C644" stroke-width="5" stroke-linecap="round" stroke-miterlimit="10" x1="148" y1="21" x2="148" y2="32"/>
			
				<line fill="#39964A" stroke="#A5C644" stroke-width="5" stroke-linecap="round" stroke-miterlimit="10" x1="119" y1="21" x2="119" y2="32"/>
			
				<line fill="#39964A" stroke="#A5C644" stroke-width="5" stroke-linecap="round" stroke-miterlimit="10" x1="129" y1="34" x2="129" y2="44"/>
			
				<line fill="#39964A" stroke="#A5C644" stroke-width="5" stroke-linecap="round" stroke-miterlimit="10" x1="138" y1="34" x2="138" y2="44"/>
			<path fill="#A5C644" d="M142.5,38.7h-18.3c-0.9,0-1.7-0.7-1.7-1.7V19.2h21.6v17.9C144.2,38,143.4,38.7,142.5,38.7z"/>
			<path fill="#A5C644" d="M133.2,9.4c-9.5,0-10.7,8.6-10.7,8.6h21.6C144.2,18,143.3,9.4,133.2,9.4z M128.7,15.3
				c-0.5,0-0.8-0.4-0.8-0.8s0.4-0.8,0.8-0.8c0.5,0,0.8,0.4,0.8,0.8S129.1,15.3,128.7,15.3z M138.5,15.3c-0.5,0-0.8-0.4-0.8-0.8
				s0.4-0.8,0.8-0.8c0.5,0,0.8,0.4,0.8,0.8S139,15.3,138.5,15.3z"/>
		</g>
	</g>
	<g id="screen">
	</g>
</g>
</svg>
